<svg xmlns="http://www.w3.org/2000/svg" xmlns:xlink="http://www.w3.org/1999/xlink" version="1.1" id="Layer_1" x="0" y="0" viewBox="0 0 30 30" enable-background="new 0 0 30 30" xml:space="preserve">
<path fill="#FFFFFF" d="M28 7.5c-1.3-2.3-3.2-4.1-5.5-5.5 -2.3-1.3-4.8-2-7.5-2 -2.7 0-5.2 0.7-7.5 2C5.2 3.4 3.4 5.2 2 7.5 0.7 9.8 0 12.3 0 15c0 2.7 0.7 5.2 2 7.5 1.3 2.3 3.2 4.1 5.5 5.5 2.3 1.3 4.8 2 7.5 2 2.7 0 5.2-0.7 7.5-2 2.3-1.3 4.1-3.2 5.5-5.5 1.3-2.3 2-4.8 2-7.5C30 12.3 29.3 9.8 28 7.5L28 7.5zM15 2.2c3.2 0 6 1.1 8.5 3.2l-0.2 0.3c-0.1 0.1-0.3 0.4-0.7 0.8 -0.4 0.4-0.8 0.8-1.3 1.1 -0.5 0.4-1.1 0.8-1.9 1.2 -0.8 0.4-1.6 0.8-2.5 1.2 -1.5-2.8-3.1-5.2-4.8-7.5C13 2.3 14 2.2 15 2.2L15 2.2zM5 7.1c1.2-1.6 2.8-2.8 4.6-3.6 1.6 2.1 3.2 4.6 4.8 7.4 -4 1-7.9 1.6-11.8 1.6C2.9 10.4 3.7 8.6 5 7.1L5 7.1zM3 19.6c-0.6-1.5-0.9-3-0.9-4.6 0-0.2 0-0.3 0-0.4 4.7 0 9.1-0.6 13.1-1.8 0.4 0.8 0.8 1.5 1 2.2 -0.1 0-0.1 0.1-0.3 0.1 -0.1 0-0.2 0.1-0.3 0.1l-0.7 0.3c-0.5 0.2-1.1 0.5-1.9 0.9 -0.8 0.4-1.7 1-2.5 1.6 -0.9 0.6-1.8 1.4-2.8 2.4 -1 1-1.8 2.1-2.4 3.3C4.4 22.4 3.6 21.1 3 19.6L3 19.6zM15 27.8c-3 0-5.8-1-8.2-2.9l0.3 0.2c0.5-1 1.1-2 2-2.9 0.9-0.9 1.7-1.7 2.6-2.2 0.8-0.6 1.7-1.1 2.7-1.6 1-0.5 1.6-0.8 2-1 0.4-0.1 0.6-0.2 0.8-0.3l0 0h0c1.3 3.3 2.2 6.6 2.7 9.7C18.4 27.5 16.7 27.8 15 27.8L15 27.8zM25.8 21.9c-1 1.5-2.2 2.7-3.6 3.7 -0.5-3-1.4-6-2.5-9.2 2.6-0.4 5.3-0.2 8 0.6C27.4 18.8 26.7 20.4 25.8 21.9L25.8 21.9zM27.6 14.8c-0.1 0-0.3-0.1-0.5-0.1 -0.2 0-0.4-0.1-0.7-0.1 -0.3 0-0.6-0.1-0.9-0.1 -0.3 0-0.7-0.1-1.1-0.1 -0.4 0-0.8-0.1-1.2-0.1 -0.4 0-0.9 0-1.3 0 -0.5 0-0.9 0-1.4 0 -0.5 0-1 0.1-1.5 0.1 0-0.1-0.1-0.2-0.1-0.3 -0.1-0.1-0.1-0.3-0.1-0.3 -0.2-0.5-0.5-1.2-0.9-1.9 0.9-0.4 1.8-0.8 2.6-1.3 0.8-0.5 1.5-0.9 2-1.3s1-0.8 1.4-1.2c0.4-0.4 0.7-0.7 0.8-0.9 0.1-0.2 0.3-0.3 0.4-0.5l0 0c1.9 2.3 2.9 5 2.9 8L27.6 14.8zM27.6 14.8"/>
</svg>