<svg xmlns="http://www.w3.org/2000/svg" xmlns:xlink="http://www.w3.org/1999/xlink" version="1.1" id="Layer_1" x="0" y="0" viewBox="0 0 31 30" enable-background="new 0 0 31 30" xml:space="preserve">
<path fill="#FFFFFF" d="M28.8 7.7c-1.4-2.4-3.2-4.2-5.6-5.6C20.9 0.7 18.3 0 15.5 0c-2.8 0-5.4 0.7-7.7 2.1C5.4 3.4 3.6 5.3 2.2 7.7c-1.4 2.4-2.1 4.9-2.1 7.7 0 3.4 1 6.4 2.9 9 2 2.7 4.5 4.5 7.6 5.6 0.4 0.1 0.6 0 0.8-0.1 0.2-0.2 0.3-0.4 0.3-0.6 0 0 0-0.4 0-1.1 0-0.7 0-1.3 0-1.8l-0.5 0.1c-0.3 0.1-0.7 0.1-1.1 0.1 -0.4 0-0.9-0.1-1.4-0.1 -0.5-0.1-0.9-0.3-1.3-0.6 -0.4-0.3-0.7-0.7-0.9-1.2l-0.2-0.5c-0.1-0.3-0.3-0.6-0.6-1 -0.3-0.4-0.6-0.6-0.9-0.8l-0.1-0.1c-0.1-0.1-0.2-0.1-0.3-0.2 -0.1-0.1-0.1-0.2-0.2-0.3 0-0.1 0-0.2 0.1-0.2 0.1-0.1 0.3-0.1 0.6-0.1l0.4 0.1c0.3 0.1 0.6 0.2 1 0.5 0.4 0.3 0.7 0.6 1 1 0.3 0.5 0.7 1 1.1 1.3 0.4 0.3 0.9 0.4 1.3 0.4 0.4 0 0.8 0 1.1-0.1 0.3-0.1 0.6-0.2 0.9-0.3 0.1-0.9 0.4-1.6 1-2.1 -0.8-0.1-1.4-0.2-2.1-0.4C10 21.6 9.4 21.4 8.8 21c-0.6-0.4-1.2-0.8-1.6-1.3 -0.4-0.5-0.8-1.2-1-2.1 -0.3-0.9-0.4-1.9-0.4-3 0-1.6 0.5-3 1.6-4.1C6.8 9.2 6.8 7.9 7.4 6.4c0.4-0.1 1 0 1.7 0.3 0.8 0.3 1.3 0.6 1.7 0.8 0.4 0.2 0.6 0.4 0.9 0.5 1.2-0.3 2.5-0.5 3.8-0.5 1.3 0 2.6 0.2 3.8 0.5l0.8-0.5c0.5-0.3 1.1-0.6 1.8-0.9 0.7-0.3 1.2-0.3 1.6-0.2 0.6 1.5 0.7 2.9 0.2 4.1 1.1 1.1 1.6 2.5 1.6 4.1 0 1.1-0.1 2.1-0.4 3 -0.3 0.9-0.6 1.6-1.1 2.1 -0.4 0.5-1 1-1.6 1.3 -0.6 0.4-1.3 0.6-1.9 0.8 -0.6 0.2-1.3 0.3-2.1 0.4 0.7 0.6 1 1.5 1 2.8v4.2c0 0.2 0.1 0.4 0.3 0.6C19.7 30 20 30 20.4 30c3.1-1 5.6-2.9 7.6-5.6 2-2.7 2.9-5.7 2.9-9C30.9 12.6 30.2 10 28.8 7.7L28.8 7.7zM28.8 7.7"/>
</svg>