<svg xmlns="http://www.w3.org/2000/svg" xmlns:xlink="http://www.w3.org/1999/xlink" version="1.1" id="Layer_1" x="0" y="0" viewBox="0 0 142 38" enable-background="new 0 0 142 38" xml:space="preserve">
  <path fill="#E67394" d="M26.3 26.1c1-0.9 1.8-2 2.3-3.2 0 0.1-0.1 0.2-0.1 0.2 0 0 0-0.1 0.1-0.2 0.6-1.3 0.8-1.8 0.8-1.8 -0.1 0.1-0.6 1.4-0.8 1.8 0.6-1.3 1-2.8 0.8-4.3 -0.2-1.4-0.8-2.6-1.9-3.5 -1.4-1.2-3.3-1.6-5.1-1.8 -0.6-0.1-1.2-0.1-1.8-0.1 -0.7 0-1.2 0-1.8 0.1 -1.8 0.2-3.7 0.6-5.1 1.8 -1.1 0.9-1.8 2.1-1.9 3.5 -0.2 1.5 0.2 3 0.8 4.3 -0.2-0.5-0.8-1.7-0.8-1.8 0 0.1 0.3 0.6 0.8 1.8 0.1 0.1 0.1 0.2 0.1 0.2 0 0 0-0.1-0.1-0.2 0.5 1.2 1.3 2.3 2.3 3.2l-7.4 5.8c1.3 1.2 3.5 2.4 5.1 3 2.3 0.9 4.7 1.3 7.1 1.3 0.3 0 0.6 0 0.9 0 0.3 0 0.6 0 0.9 0 2.4-0.1 4.9-0.5 7.1-1.3 1.6-0.6 3.8-1.8 5.1-3L26.3 26.1z"/>
  <path fill="#FFFFFF" d="M20.6 0C9 0 0.3 7.3 0.3 17c0 18.3 12.7 21 20.3 21 7.6 0 20.3-2.7 20.3-21C40.9 7.3 32.2 0 20.6 0zM33.1 31.3c-3.2 2.9-7.6 4.1-12.4 4.1 -4.9 0-9.3-1.2-12.5-4.1C5 28.4 3 23.8 3 17.1c0-8 7.3-14.5 17.6-14.5s17.6 6.5 17.6 14.5C38.2 23.9 36.2 28.4 33.1 31.3z"/>
  <path fill="#FFFFFF" d="M62.2 16.5c-0.3-0.3-0.6-0.6-1-0.8 -0.4-0.2-0.9-0.3-1.4-0.3 -0.5 0-1 0.1-1.4 0.3 -0.4 0.2-0.8 0.5-1.2 0.8 -0.3 0.4-0.6 0.8-0.8 1.3 -0.2 0.5-0.3 1-0.3 1.6 0 0.6 0.1 1.1 0.3 1.6 0.2 0.5 0.4 0.9 0.8 1.3 0.3 0.4 0.7 0.6 1.1 0.8 0.4 0.2 0.9 0.3 1.4 0.3 0.6 0 1.1-0.1 1.5-0.4 0.4-0.2 0.8-0.6 1.1-1l2.3 1.7c-0.5 0.7-1.2 1.3-2 1.7 -0.8 0.4-1.7 0.5-2.5 0.5 -1 0-1.9-0.2-2.7-0.5 -0.8-0.3-1.5-0.7-2.1-1.3 -0.6-0.6-1.1-1.3-1.4-2.1 -0.3-0.8-0.5-1.7-0.5-2.7 0-1 0.2-1.9 0.5-2.7 0.3-0.8 0.8-1.5 1.4-2.1 0.6-0.6 1.3-1 2.1-1.3 0.8-0.3 1.7-0.5 2.7-0.5 0.4 0 0.7 0 1.1 0.1 0.4 0.1 0.8 0.2 1.1 0.3 0.4 0.1 0.7 0.3 1.1 0.6 0.3 0.2 0.7 0.5 0.9 0.9L62.2 16.5z"/>
  <path fill="#FFFFFF" d="M67.6 19.6c0-1 0.2-1.9 0.5-2.7 0.3-0.8 0.8-1.5 1.4-2.1 0.6-0.6 1.3-1 2.1-1.3 0.8-0.3 1.7-0.5 2.7-0.5 1 0 1.9 0.2 2.7 0.5 0.8 0.3 1.5 0.7 2.1 1.3 0.6 0.6 1.1 1.3 1.4 2.1 0.3 0.8 0.5 1.7 0.5 2.7 0 1-0.2 1.9-0.5 2.7 -0.3 0.8-0.8 1.5-1.4 2.1 -0.6 0.6-1.3 1-2.1 1.3 -0.8 0.3-1.7 0.5-2.7 0.5 -1 0-1.9-0.2-2.7-0.5 -0.8-0.3-1.5-0.7-2.1-1.3 -0.6-0.6-1.1-1.3-1.4-2.1C67.7 21.5 67.6 20.6 67.6 19.6zM70.4 19.6c0 0.6 0.1 1.1 0.3 1.6 0.2 0.5 0.4 0.9 0.8 1.3 0.3 0.4 0.8 0.6 1.2 0.8 0.5 0.2 1 0.3 1.6 0.3 0.6 0 1.1-0.1 1.6-0.3 0.5-0.2 0.9-0.5 1.2-0.8 0.3-0.4 0.6-0.8 0.8-1.3 0.2-0.5 0.3-1 0.3-1.6 0-0.6-0.1-1.1-0.3-1.6 -0.2-0.5-0.4-0.9-0.8-1.3 -0.3-0.4-0.8-0.6-1.2-0.8 -0.5-0.2-1-0.3-1.6-0.3 -0.6 0-1.1 0.1-1.6 0.3 -0.5 0.2-0.9 0.5-1.2 0.8 -0.3 0.4-0.6 0.8-0.8 1.3C70.5 18.4 70.4 19 70.4 19.6z"/>
  <path fill="#FFFFFF" d="M85.3 13.3H88v10h5.1v2.6h-7.9V13.3z"/>
  <path fill="#FFFFFF" d="M96.8 13.3h2.8v12.6h-2.8V13.3z"/>
  <path fill="#FFFFFF" d="M104.2 13.3h3.8l5.3 8.7h0v-8.7h2.8v12.6h-3.6l-5.5-8.9h0v8.9h-2.8V13.3z"/>
  <path fill="#FFFFFF" d="M125.7 13.3h4.9c0.6 0 1.2 0.1 1.8 0.2 0.6 0.1 1.1 0.3 1.5 0.6 0.4 0.3 0.8 0.7 1 1.2 0.3 0.5 0.4 1.1 0.4 1.8 0 0.9-0.2 1.6-0.7 2.3 -0.5 0.6-1.1 1-2 1.2l3.2 5.3h-3.3l-2.6-5h-1.4v5h-2.8V13.3zM128.5 18.5h1.6c0.2 0 0.5 0 0.8 0 0.3 0 0.5-0.1 0.8-0.2 0.2-0.1 0.4-0.2 0.6-0.4 0.1-0.2 0.2-0.5 0.2-0.8 0-0.3-0.1-0.6-0.2-0.8 -0.1-0.2-0.3-0.3-0.5-0.4 -0.2-0.1-0.4-0.2-0.7-0.2 -0.3 0-0.5-0.1-0.8-0.1h-1.8V18.5z"/>
  <path fill="#FFFFFF" d="M139 24.3c0-0.2 0-0.4 0.1-0.6 0.1-0.2 0.2-0.4 0.3-0.5s0.3-0.3 0.5-0.3c0.2-0.1 0.4-0.1 0.6-0.1s0.4 0 0.6 0.1c0.2 0.1 0.4 0.2 0.5 0.3 0.1 0.1 0.3 0.3 0.3 0.5 0.1 0.2 0.1 0.4 0.1 0.6 0 0.2 0 0.4-0.1 0.6 -0.1 0.2-0.2 0.4-0.3 0.5 -0.1 0.1-0.3 0.3-0.5 0.3 -0.2 0.1-0.4 0.1-0.6 0.1s-0.4 0-0.6-0.1c-0.2-0.1-0.4-0.2-0.5-0.3 -0.1-0.1-0.3-0.3-0.3-0.5C139.1 24.8 139 24.5 139 24.3z"/>
</svg>