<svg version="1.2" baseProfile="tiny" xmlns="http://www.w3.org/2000/svg" width="270" height="366" viewBox="0 0 270 366">
  <path fill="#76868E" d="M162.292 48.284c-.353-.428-.785-.758-1.298-.987-.514-.23-1.105-.345-1.78-.345-.674 0-1.297.13-1.87.39-.574.262-1.072.625-1.494 1.092-.42.467-.75 1.022-.986 1.665-.237.642-.356 1.34-.356 2.09 0 .765.12 1.465.356 2.1.236.637.562 1.188.976 1.654.414.467.9.83 1.46 1.09.56.262 1.158.392 1.803.392.733 0 1.385-.153 1.95-.46.567-.305 1.034-.734 1.4-1.285l2.985 2.23c-.688.964-1.562 1.676-2.617 2.135-1.056.46-2.144.69-3.26.69-1.272 0-2.442-.2-3.515-.598s-1.998-.968-2.78-1.71c-.778-.744-1.388-1.643-1.823-2.7-.438-1.056-.654-2.235-.654-3.537s.218-2.48.654-3.537c.437-1.057 1.045-1.956 1.824-2.7.78-.74 1.707-1.31 2.78-1.71 1.07-.398 2.242-.597 3.513-.597.458 0 .937.042 1.436.126.497.084.987.218 1.47.402.483.184.945.43 1.39.735.443.306.843.68 1.194 1.124l-2.758 2.25zM169.273 52.188c0-1.3.218-2.48.653-3.537.437-1.056 1.046-1.955 1.825-2.698.782-.742 1.708-1.312 2.78-1.71 1.07-.4 2.242-.598 3.514-.598s2.44.2 3.514.597c1.07.4 1.998.97 2.78 1.712.78.743 1.39 1.642 1.824 2.7.437 1.055.655 2.234.655 3.536s-.22 2.48-.655 3.537-1.045 1.956-1.825 2.7c-.78.742-1.708 1.312-2.78 1.71-1.07.398-2.24.597-3.513.597s-2.44-.2-3.514-.597c-1.072-.398-1.998-.968-2.78-1.71-.778-.744-1.388-1.643-1.824-2.7-.435-1.056-.653-2.235-.653-3.537zm3.72 0c0 .766.118 1.466.356 2.102.235.636.575 1.187 1.02 1.653.444.467.978.83 1.597 1.09.62.262 1.312.392 2.078.392s1.458-.13 2.078-.39c.62-.26 1.152-.625 1.598-1.092.443-.467.784-1.018 1.022-1.653.237-.635.356-1.336.356-2.102 0-.75-.12-1.447-.356-2.09s-.578-1.198-1.02-1.665c-.446-.467-.98-.83-1.6-1.09-.62-.26-1.31-.392-2.077-.392s-1.458.13-2.078.392c-.62.26-1.152.624-1.597 1.09-.444.468-.784 1.023-1.02 1.666-.24.643-.357 1.34-.357 2.09zM192.146 44.06h3.582V57.01h6.638v3.307h-10.22V44.06zM207.052 44.06h3.583v16.26h-3.583V44.06zM216.65 44.06h4.87l6.91 11.298h.048v-11.3h3.582v16.26h-4.686l-7.098-11.574h-.045V60.32h-3.583V44.06h.003zM244.462 44.06h6.293c.827 0 1.61.08 2.354.24.74.16 1.393.43 1.95.804.56.375 1.004.88 1.332 1.516.33.636.494 1.428.494 2.377 0 1.148-.3 2.125-.896 2.928-.6.804-1.47 1.313-2.618 1.527l4.134 6.867h-4.295l-3.396-6.5h-1.77v6.5h-3.583V44.06zm3.583 6.728h2.112c.32 0 .66-.012 1.022-.035.357-.023.683-.092.974-.207.29-.115.533-.294.725-.54s.286-.59.286-1.034c0-.413-.084-.742-.252-.987-.17-.245-.385-.433-.645-.563-.262-.13-.56-.218-.897-.264-.337-.046-.666-.07-.987-.07h-2.343l.002 3.7zM261.732 58.343c0-.29.054-.566.16-.827.106-.26.256-.486.447-.678.19-.19.416-.34.677-.448.26-.107.537-.16.828-.16.29 0 .564.053.825.16s.486.257.68.448c.19.192.34.417.445.678.106.26.16.536.16.827s-.054.566-.16.827c-.106.26-.256.486-.446.678-.192.192-.42.34-.68.448s-.536.16-.825.16c-.29 0-.568-.053-.828-.16-.26-.107-.485-.256-.678-.448-.192-.192-.342-.417-.448-.678-.106-.26-.16-.536-.16-.827z"/>
  <path fill="#9AAEB7" d="M150.55 78.687V78l.783-.074c.15-.01.172-.054.172-.214v-5.806c0-.16-.02-.204-.172-.215l-.782-.073v-.686h3.204v.687l-.824.085c-.16.02-.172.043-.172.204V77.7c0 .172.012.193.172.215l.824.086v.687h-3.203zM163.234 78.687l-3.717-6.127v5.142c0 .17.012.192.172.214l.717.086v.686h-2.753v-.686l.675-.075c.148-.02.17-.054.17-.214v-5.806c0-.16-.02-.204-.17-.215l-.676-.074v-.696h2.324l3.63 6.105v-5.12c0-.16-.02-.204-.17-.215l-.675-.074v-.686h2.752v.686l-.717.085c-.16.02-.172.043-.172.204v6.78h-1.392zM170.704 78.687v-.697l1.104-.075c.148-.01.17-.054.17-.214v-5.848h-1.435c-.118 0-.15.01-.172.118l-.17.932h-.9v-1.97h6.61v1.97h-.89l-.172-.932c-.02-.107-.055-.118-.172-.118h-1.445v5.85c0 .148.012.19.17.202l1.18.086v.696h-3.876zM179.575 78.687V78l.675-.074c.15-.02.172-.054.172-.214v-5.795c0-.16-.02-.204-.172-.215l-.675-.074v-.696h5.506v1.928l-.91-.043-.148-.824c-.02-.107-.063-.14-.183-.14h-2.165v2.464h2.722v.932h-2.722v2.527h2.4c.116 0 .15-.01.17-.118l.172-.943h.9v1.97h-5.742zM192.956 78.687v-.675l.707-.097-.804-2.024c-.13-.33-.3-.46-.665-.46h-.91v2.27c0 .172.01.193.172.215l.686.086v.687h-2.945V78l.675-.074c.15-.02.172-.054.172-.214v-5.795c0-.16-.02-.204-.172-.215l-.675-.074v-.696h3.428c1.93 0 2.44 1.05 2.44 2.12 0 1.125-.6 1.735-1.444 2.067.333.16.44.417.645.932l.643 1.64c.085.16.16.18.32.202l.653.107v.687h-2.927zm-.878-4.167c.91 0 1.69-.246 1.69-1.414 0-.985-.6-1.242-1.767-1.242h-.717v2.656h.795zM203.82 78.687V78l.88-.096-.493-1.445h-2.86l-.493 1.444.857.097v.687h-2.677v-.675l.46-.118c.13-.032.226-.074.27-.203l2.355-6.758h1.51l2.368 6.78c.042.128.128.15.257.182l.492.118v.675h-2.925zm-1.015-6.567h-.033l-1.146 3.396h2.313l-1.135-3.396zM215.98 78.236c-.6.386-1.64.58-2.613.58-2.635 0-3.706-1.62-3.706-4.05 0-2.282 1.297-3.975 3.91-3.975.922 0 1.832.226 2.39.59v1.875l-.91-.064-.183-1.038c-.012-.097-.043-.15-.15-.182-.332-.107-.75-.193-1.2-.193-1.553 0-2.55 1.028-2.55 2.988 0 2.046.943 3.074 2.477 3.074.438 0 .975-.043 1.328-.183.105-.032.148-.064.17-.203l.172-.986h.867v1.768zM220.814 78.687v-.697l1.104-.075c.148-.01.17-.054.17-.214v-5.848h-1.434c-.118 0-.15.01-.172.118l-.172.932h-.9v-1.97h6.61v1.97h-.89l-.172-.932c-.02-.107-.055-.118-.17-.118h-1.447v5.85c0 .148.013.19.173.202l1.178.086v.696h-3.876zM229.46 78.687V78l.783-.074c.15-.01.172-.054.172-.214v-5.806c0-.16-.02-.204-.172-.215l-.782-.073v-.686h3.204v.687l-.825.085c-.16.02-.172.043-.172.204V77.7c0 .172.012.193.17.215l.826.086v.687h-3.203zM236.03 74.787c0-2.27 1.284-3.995 3.77-3.995 2.484 0 3.566 1.725 3.566 3.878 0 2.517-1.222 4.146-3.718 4.146-2.527 0-3.62-1.67-3.62-4.03zm6.05-.02c0-1.972-.877-2.936-2.29-2.936-1.447 0-2.465.976-2.465 2.946 0 2.067.932 3 2.366 3 1.415 0 2.39-.89 2.39-3.01zM251.713 78.687l-3.717-6.127v5.142c0 .17.01.192.17.214l.72.086v.686h-2.754v-.686l.675-.075c.15-.02.172-.054.172-.214v-5.806c0-.16-.022-.204-.173-.215l-.675-.074v-.696h2.325l3.63 6.105v-5.12c0-.16-.02-.204-.17-.215l-.676-.074v-.686h2.754v.686l-.717.085c-.16.02-.172.043-.172.204v6.78h-1.392zM150.562 90.93v-.685l.674-.075c.15-.02.173-.054.173-.214V84.16c0-.16-.022-.203-.174-.214l-.674-.074v-.696h3.31c2.69 0 3.846 1.445 3.846 3.76 0 2.378-1.253 3.995-4.026 3.995h-3.13zm3.05-.93c1.983 0 2.82-1.137 2.82-2.947 0-2.217-.944-2.945-2.755-2.945h-1.018V90h.953zM160.697 90.93v-.685l.675-.075c.15-.02.172-.054.172-.214V84.16c0-.16-.02-.203-.172-.214l-.675-.074v-.696h5.506v1.928l-.91-.043-.15-.823c-.02-.107-.062-.14-.182-.14h-2.163v2.464h2.72v.933h-2.72v2.528h2.398c.12 0 .15-.01.173-.117l.17-.942h.9v1.972h-5.74zM174.604 85.275l-.15-.89c-.02-.118-.042-.17-.105-.203-.13-.075-.462-.172-.944-.172-.984 0-1.467.44-1.467 1.114 0 .814.75 1.05 1.585 1.307 1.05.322 2.238.687 2.238 2.293 0 1.703-1.328 2.336-2.902 2.336-.976 0-1.972-.248-2.335-.42v-1.885h.91l.215.965c.03.14.043.17.183.214.15.043.558.16 1.092.16 1.007 0 1.597-.385 1.597-1.21 0-.857-.738-1.104-1.563-1.34-1.063-.31-2.262-.61-2.262-2.238 0-1.574 1.21-2.27 2.765-2.27.91 0 1.66.234 2.067.395v1.93l-.926-.085zM179.66 90.93v-.685l.783-.075c.15-.01.172-.054.172-.214V84.15c0-.16-.02-.204-.172-.215l-.782-.074v-.685h3.203v.686l-.824.086c-.16.02-.172.043-.172.204v5.795c0 .17.01.192.17.214l.825.085v.686h-3.202zM193.417 88.007c-.13.01-.172.042-.172.15v2.43c-.728.355-1.777.473-2.646.473-2.915 0-3.954-1.725-3.954-4.05 0-2.27 1.285-3.974 3.92-3.974.857 0 1.8.203 2.4.6v1.832l-.922-.075-.172-.975c-.02-.118-.042-.172-.148-.203-.332-.107-.805-.193-1.232-.193-1.562 0-2.538 1.104-2.538 2.978 0 1.972.953 3.085 2.71 3.085.386 0 .878-.053 1.19-.128.095-.02.147-.054.147-.183V88.07h-1.35l.14-.803h3.075v.696l-.448.044zM202.812 90.93l-3.717-6.126v5.142c0 .17.012.192.172.214l.717.086v.686h-2.752v-.686l.675-.075c.15-.02.172-.053.172-.213V84.15c0-.16-.022-.204-.173-.215l-.675-.074v-.695h2.324l3.63 6.105v-5.12c0-.16-.02-.204-.17-.215l-.676-.074v-.685h2.753v.686l-.717.086c-.16.02-.172.043-.172.204v6.78h-1.392zM208.738 90.93v-.685l.676-.075c.15-.02.172-.054.172-.214V84.16c0-.16-.02-.203-.172-.214l-.676-.074v-.696h5.507v1.928l-.91-.043-.15-.823c-.02-.107-.062-.14-.182-.14h-2.164v2.464h2.72v.933h-2.72v2.528h2.398c.117 0 .15-.01.172-.117l.17-.942h.9v1.972h-5.742zM222.12 90.93v-.674l.707-.097-.804-2.025c-.13-.332-.3-.46-.664-.46h-.91v2.27c0 .17.01.192.17.214l.687.085v.686h-2.945v-.685l.675-.075c.15-.02.172-.054.172-.214V84.16c0-.16-.022-.203-.173-.214l-.675-.074v-.696h3.428c1.93 0 2.44 1.05 2.44 2.12 0 1.125-.6 1.735-1.444 2.067.333.16.44.418.645.933l.644 1.64c.085.16.16.18.32.202l.653.107v.686h-2.927zm-.878-4.166c.91 0 1.69-.246 1.69-1.414 0-.985-.6-1.242-1.767-1.242h-.718v2.656h.795z"/>
  <g>
	<path fill="#76868E" d="M65.035 0C26.89 0 0 24.04 0 53.693c0 49.736 29.118 67.45 65.035 67.45 35.918 0 65.034-17.714 65.034-67.45C130.07 24.04 103.18 0 65.034 0zm42.225 102.344c-10.804 9.777-25.734 13.844-42.225 13.844-16.564 0-31.554-4.105-42.37-13.98C11.948 92.427 5.322 76.985 5.322 54.26c0-27.23 24.69-49.3 59.713-49.3 35.024 0 59.712 22.07 59.712 49.3 0 22.826-6.683 38.31-17.487 48.086z"/>
	<path fill="#9AAEB7" d="M92.21 73.777c7.273-16.153 1.34-32.84-27.175-32.84-5.793 0-10.653.69-14.66 1.92-.616.19-1.213.392-1.79.608-.866.322-1.685.673-2.46 1.05-11.9 5.766-13.494 17.654-8.267 29.262 1.986 4.412 4.747 7.912 7.756 10.678l-22.95 17.754c10.816 9.872 25.806 13.978 42.37 13.978 16.49 0 31.42-4.066 42.225-13.844L84.32 84.578c3.063-2.785 5.875-6.32 7.89-10.8z"/>
  </g>
  <g>
	<path fill="#FFF" d="M162.292 170.284c-.353-.43-.785-.76-1.298-.987-.514-.23-1.105-.345-1.78-.345-.674 0-1.297.13-1.87.39-.574.262-1.072.625-1.494 1.092-.42.467-.75 1.02-.986 1.666-.237.644-.356 1.34-.356 2.09 0 .766.12 1.465.356 2.102.236.636.562 1.188.976 1.652.414.468.9.83 1.46 1.092.56.26 1.158.39 1.803.39.733 0 1.385-.15 1.95-.46.567-.305 1.034-.732 1.4-1.283l2.985 2.227c-.688.965-1.562 1.678-2.617 2.137-1.056.46-2.144.69-3.26.69-1.272 0-2.442-.2-3.515-.6-1.072-.397-1.998-.97-2.78-1.71-.778-.742-1.388-1.644-1.823-2.7-.438-1.056-.654-2.233-.654-3.536 0-1.3.218-2.478.654-3.534.437-1.057 1.045-1.957 1.824-2.7.78-.74 1.707-1.31 2.78-1.71 1.07-.398 2.242-.598 3.513-.598.458 0 .937.043 1.436.127.497.084.987.22 1.47.4.483.184.945.43 1.39.735.443.307.843.682 1.194 1.125l-2.758 2.25zM169.273 174.188c0-1.302.218-2.48.653-3.535.437-1.058 1.046-1.957 1.825-2.7.782-.74 1.708-1.31 2.78-1.71 1.07-.398 2.242-.598 3.514-.598s2.44.198 3.514.598c1.072.398 1.998.97 2.78 1.71.78.743 1.39 1.644 1.824 2.7.437 1.056.655 2.233.655 3.535 0 1.303-.22 2.48-.655 3.537s-1.045 1.957-1.825 2.698c-.78.742-1.708 1.312-2.78 1.71-1.07.4-2.24.6-3.513.6s-2.44-.2-3.514-.6c-1.072-.396-1.998-.968-2.78-1.71-.778-.74-1.388-1.644-1.824-2.698-.435-1.056-.653-2.235-.653-3.537zm3.72 0c0 .767.118 1.467.356 2.103.235.637.575 1.188 1.02 1.654.444.466.978.83 1.597 1.09.62.262 1.312.392 2.078.392s1.458-.13 2.078-.39 1.152-.625 1.598-1.092c.443-.467.784-1.02 1.022-1.653.237-.635.356-1.335.356-2.102 0-.75-.12-1.445-.356-2.09-.237-.644-.578-1.197-1.02-1.664-.446-.468-.98-.83-1.6-1.092-.62-.26-1.31-.39-2.077-.39s-1.458.13-2.078.39c-.62.262-1.152.624-1.597 1.092-.445.467-.784 1.02-1.02 1.664-.24.644-.357 1.34-.357 2.09zM192.146 166.06h3.582v12.952h6.638v3.307h-10.22v-16.26zM207.052 166.06h3.583v16.26h-3.583v-16.26zM216.65 166.06h4.87l6.91 11.298h.048v-11.3h3.582v16.26h-4.686l-7.098-11.572h-.045v11.573h-3.583v-16.26h.003zM244.462 166.06h6.293c.827 0 1.61.08 2.354.24.74.16 1.393.43 1.95.804.56.375 1.004.88 1.332 1.517.33.637.494 1.43.494 2.378 0 1.147-.3 2.125-.896 2.928-.6.806-1.47 1.313-2.618 1.527l4.134 6.866h-4.295l-3.396-6.5h-1.77v6.5h-3.583v-16.26zm3.583 6.727h2.112c.32 0 .66-.012 1.022-.034.357-.022.683-.092.974-.206.29-.115.533-.295.725-.54s.286-.59.286-1.034c0-.412-.084-.742-.252-.986-.17-.245-.385-.434-.645-.562-.262-.13-.56-.218-.897-.265-.337-.046-.666-.068-.987-.068h-2.343l.002 3.695zM261.732 180.344c0-.29.054-.566.16-.826.106-.262.256-.485.447-.68.19-.19.416-.34.677-.447.26-.104.537-.16.828-.16.29 0 .564.056.825.16.26.108.486.26.68.45.19.19.34.416.445.678.106.26.16.535.16.826s-.054.566-.16.826c-.106.262-.256.486-.446.678-.192.192-.42.342-.68.447-.26.107-.536.16-.825.16-.29 0-.568-.053-.828-.16-.26-.105-.485-.256-.678-.447-.192-.19-.342-.416-.448-.678-.106-.26-.16-.535-.16-.826z"/>
	<path fill="#CEF" d="M150.55 200.686V200l.783-.074c.15-.012.172-.055.172-.215v-5.804c0-.162-.02-.205-.172-.215l-.782-.073v-.686h3.204v.687l-.824.084c-.16.022-.172.044-.172.206v5.795c0 .17.012.192.172.214l.824.086v.686h-3.203zM163.234 200.686l-3.717-6.127v5.143c0 .17.012.19.172.213l.717.086v.687h-2.753V200l.675-.074c.148-.02.17-.055.17-.215v-5.804c0-.162-.02-.205-.17-.215l-.676-.073v-.697h2.324l3.63 6.105v-5.12c0-.16-.02-.204-.17-.214l-.675-.073v-.686h2.752v.687l-.717.084c-.16.022-.172.044-.172.206v6.78h-1.392zM170.704 200.686v-.694l1.104-.076c.148-.01.17-.054.17-.213v-5.85h-1.435c-.118 0-.15.01-.172.118l-.17.933h-.9v-1.97h6.61v1.97h-.89l-.172-.932c-.02-.106-.055-.118-.172-.118h-1.445v5.85c0 .148.012.19.17.203l1.18.087v.694h-3.876zM179.575 200.686V200l.675-.074c.15-.02.172-.055.172-.215v-5.794c0-.16-.02-.203-.172-.215l-.675-.073v-.695h5.506v1.928l-.91-.043-.148-.823c-.02-.107-.063-.142-.183-.142h-2.165v2.465h2.722v.933h-2.722v2.526h2.4c.116 0 .15-.01.17-.116l.172-.943h.9v1.972h-5.742v-.004zM192.956 200.686v-.674l.707-.098-.804-2.023c-.13-.33-.3-.46-.665-.46h-.91v2.27c0 .17.01.192.172.214l.686.086v.686h-2.945V200l.675-.074c.15-.02.172-.055.172-.215v-5.794c0-.16-.02-.203-.172-.215l-.675-.073v-.695h3.428c1.93 0 2.44 1.05 2.44 2.12 0 1.124-.6 1.735-1.444 2.067.333.16.44.417.645.93l.643 1.64c.085.16.16.183.32.203l.653.107v.686h-2.927zm-.878-4.166c.91 0 1.69-.246 1.69-1.414 0-.985-.6-1.242-1.767-1.242h-.717v2.656h.795zM203.82 200.686V200l.88-.096-.493-1.445h-2.86l-.493 1.444.857.096v.686h-2.677v-.674l.46-.12c.13-.03.226-.073.27-.202l2.355-6.758h1.51l2.368 6.78c.042.128.128.15.257.18l.492.12v.674h-2.925zm-1.015-6.567h-.033l-1.146 3.395h2.313l-1.135-3.396zM215.98 200.236c-.6.385-1.64.578-2.613.578-2.635 0-3.706-1.617-3.706-4.05 0-2.28 1.297-3.975 3.91-3.975.922 0 1.832.225 2.39.59v1.874l-.91-.063-.183-1.038c-.012-.098-.043-.15-.15-.183-.332-.107-.75-.193-1.2-.193-1.553 0-2.55 1.027-2.55 2.988 0 2.045.943 3.073 2.477 3.073.438 0 .975-.043 1.328-.182.105-.033.148-.064.17-.203l.172-.986h.867v1.77zM220.814 200.686v-.694l1.104-.076c.148-.01.17-.054.17-.213v-5.85h-1.434c-.118 0-.15.01-.172.118l-.172.933h-.9v-1.97h6.61v1.97h-.89l-.172-.932c-.02-.106-.055-.118-.17-.118h-1.447v5.85c0 .148.013.19.173.203l1.178.087v.694h-3.876zM229.46 200.686V200l.783-.074c.15-.012.172-.055.172-.215v-5.804c0-.162-.02-.205-.172-.215l-.782-.073v-.686h3.204v.687l-.825.084c-.16.022-.172.044-.172.206v5.795c0 .17.012.192.17.214l.826.086v.686h-3.203zM236.03 196.787c0-2.27 1.284-3.996 3.77-3.996 2.484 0 3.566 1.726 3.566 3.88 0 2.516-1.222 4.145-3.718 4.145-2.527 0-3.62-1.67-3.62-4.028zm6.05-.02c0-1.972-.877-2.937-2.29-2.937-1.447 0-2.465.975-2.465 2.945 0 2.067.932 3 2.366 3 1.415 0 2.39-.888 2.39-3.01zM251.713 200.686l-3.717-6.127v5.143c0 .17.01.19.17.213l.72.086v.687h-2.754V200l.675-.074c.15-.02.172-.055.172-.215v-5.804c0-.162-.022-.205-.173-.215l-.675-.073v-.697h2.325l3.63 6.105v-5.12c0-.16-.02-.204-.17-.214l-.676-.073v-.686h2.754v.687l-.717.084c-.16.022-.172.044-.172.206v6.78h-1.392zM150.562 212.93v-.686l.674-.074c.15-.02.173-.055.173-.215v-5.795c0-.16-.022-.203-.174-.215l-.674-.074v-.694h3.31c2.69 0 3.846 1.445 3.846 3.76 0 2.377-1.253 3.994-4.026 3.994h-3.13zm3.05-.932c1.983 0 2.82-1.135 2.82-2.945 0-2.217-.944-2.945-2.755-2.945h-1.018V212l.953-.002zM160.697 212.93v-.686l.675-.074c.15-.02.172-.055.172-.215v-5.795c0-.16-.02-.203-.172-.215l-.675-.074v-.694h5.506v1.928l-.91-.043-.15-.823c-.02-.106-.062-.14-.182-.14h-2.163v2.464h2.72v.934h-2.72v2.526h2.398c.12 0 .15-.01.173-.117l.17-.942h.9v1.973h-5.74v-.003zM174.604 207.275l-.15-.892c-.02-.116-.042-.17-.105-.202-.13-.073-.462-.172-.944-.172-.984 0-1.467.44-1.467 1.115 0 .813.75 1.05 1.585 1.308 1.05.32 2.238.687 2.238 2.292 0 1.702-1.328 2.336-2.902 2.336-.976 0-1.972-.246-2.335-.418v-1.886h.91l.215.965c.03.14.043.17.183.213.15.043.558.16 1.092.16 1.007 0 1.597-.386 1.597-1.21 0-.856-.738-1.104-1.563-1.34-1.063-.312-2.262-.608-2.262-2.237 0-1.574 1.21-2.27 2.765-2.27.91 0 1.66.235 2.067.395v1.93l-.926-.085zM179.66 212.93v-.686l.783-.074c.15-.012.172-.055.172-.215v-5.805c0-.162-.02-.205-.172-.215l-.782-.074v-.686h3.203v.687l-.824.085c-.16.02-.172.043-.172.205v5.795c0 .17.01.19.17.213l.825.086v.686h-3.202zM193.417 210.006c-.13.012-.172.043-.172.15v2.432c-.728.354-1.777.47-2.646.47-2.915 0-3.954-1.724-3.954-4.048 0-2.27 1.285-3.975 3.92-3.975.857 0 1.8.203 2.4.6v1.832l-.922-.074-.172-.975c-.02-.12-.042-.172-.148-.203-.332-.107-.805-.193-1.232-.193-1.562 0-2.538 1.104-2.538 2.978 0 1.974.953 3.086 2.71 3.086.386 0 .878-.053 1.19-.13.095-.02.147-.053.147-.182v-1.703h-1.35l.14-.802h3.075v.695l-.448.043zM202.812 212.93l-3.717-6.127v5.143c0 .17.012.19.172.214l.717.086v.687h-2.752v-.687l.675-.074c.15-.02.172-.055.172-.215v-5.806c0-.16-.022-.204-.173-.214l-.675-.074v-.696h2.324l3.63 6.104v-5.12c0-.16-.02-.203-.17-.214l-.676-.074v-.686h2.753v.686l-.717.085c-.16.02-.172.043-.172.204v6.78h-1.392zM208.738 212.93v-.686l.676-.074c.15-.02.172-.055.172-.215v-5.795c0-.16-.02-.203-.172-.215l-.676-.074v-.694h5.507v1.928l-.91-.043-.15-.823c-.02-.106-.062-.14-.182-.14h-2.164v2.464h2.72v.934h-2.72v2.526h2.398c.117 0 .15-.01.172-.117l.17-.942h.9v1.973h-5.742v-.003zM222.12 212.93v-.674l.707-.098-.804-2.023c-.13-.332-.3-.46-.664-.46h-.91v2.27c0 .17.01.19.17.213l.687.086v.686h-2.945v-.686l.675-.074c.15-.02.172-.055.172-.215v-5.795c0-.16-.022-.203-.173-.215l-.675-.074v-.694h3.428c1.93 0 2.44 1.05 2.44 2.12 0 1.124-.6 1.735-1.444 2.067.333.16.44.418.645.932l.644 1.64c.085.16.16.182.32.202l.653.107v.686h-2.927zm-.878-4.166c.91 0 1.69-.246 1.69-1.414 0-.985-.6-1.242-1.767-1.242h-.718v2.656h.795z"/>
	<g>
	  <path fill="#FFF" d="M65.035 122C26.89 122 0 146.04 0 175.693c0 49.736 29.118 67.45 65.035 67.45 35.918 0 65.034-17.714 65.034-67.45 0-29.654-26.89-53.693-65.035-53.693zm42.225 102.344c-10.804 9.777-25.734 13.844-42.225 13.844-16.564 0-31.554-4.104-42.37-13.98-10.717-9.782-17.343-25.224-17.343-47.95 0-27.23 24.69-49.3 59.713-49.3 35.024 0 59.712 22.07 59.712 49.3 0 22.826-6.683 38.31-17.487 48.086z"/>
	  <path fill="#CEF" d="M92.21 195.777c7.273-16.153 1.34-32.84-27.175-32.84-5.793 0-10.653.688-14.66 1.92-.616.19-1.213.393-1.79.606-.866.322-1.685.675-2.46 1.05-11.9 5.768-13.494 17.655-8.267 29.264 1.986 4.412 4.747 7.912 7.756 10.678l-22.95 17.754c10.816 9.872 25.806 13.978 42.37 13.978 16.49 0 31.42-4.065 42.225-13.844l-22.94-17.766c3.063-2.785 5.875-6.32 7.89-10.8z"/>
	</g>
  </g>
  <g>
	<path fill="#CDD0D1" d="M162.292 292.284c-.353-.43-.785-.76-1.298-.987-.514-.23-1.105-.345-1.78-.345-.674 0-1.297.13-1.87.39-.574.262-1.072.625-1.494 1.092-.42.47-.75 1.022-.986 1.666-.237.644-.356 1.34-.356 2.09 0 .766.12 1.467.356 2.102.236.636.562 1.188.976 1.652.414.47.9.832 1.46 1.092.56.26 1.158.39 1.803.39.733 0 1.385-.15 1.95-.458s1.034-.734 1.4-1.285l2.985 2.228c-.688.966-1.562 1.678-2.617 2.137-1.056.46-2.144.69-3.26.69-1.272 0-2.442-.2-3.515-.6-1.072-.396-1.998-.968-2.78-1.71-.778-.742-1.388-1.643-1.823-2.7-.437-1.055-.654-2.233-.654-3.536 0-1.3.218-2.478.654-3.534.437-1.057 1.045-1.956 1.824-2.7.78-.74 1.707-1.31 2.78-1.71 1.07-.396 2.242-.598 3.513-.598.458 0 .937.043 1.436.127.497.084.987.22 1.47.4.483.184.945.43 1.39.735.443.307.843.682 1.194 1.126l-2.758 2.248zM169.273 296.188c0-1.3.218-2.48.653-3.535.437-1.057 1.046-1.957 1.825-2.7.782-.74 1.708-1.31 2.78-1.71 1.07-.396 2.242-.598 3.514-.598s2.44.2 3.514.598c1.07.398 1.998.97 2.78 1.71.78.743 1.39 1.644 1.824 2.7.437 1.056.655 2.234.655 3.535 0 1.303-.22 2.48-.655 3.537-.437 1.058-1.045 1.957-1.825 2.698-.78.743-1.708 1.313-2.78 1.71-1.07.4-2.24.6-3.513.6s-2.44-.2-3.514-.6c-1.072-.396-1.998-.967-2.78-1.71-.778-.74-1.388-1.642-1.824-2.698-.435-1.056-.653-2.235-.653-3.537zm3.72 0c0 .767.118 1.467.356 2.103.235.637.575 1.188 1.02 1.654.444.468.978.83 1.597 1.09.62.262 1.312.392 2.078.392s1.458-.13 2.078-.39 1.152-.624 1.598-1.092c.443-.467.784-1.02 1.022-1.653s.356-1.335.356-2.102c0-.75-.12-1.445-.356-2.09-.237-.643-.578-1.197-1.02-1.664-.446-.468-.98-.83-1.6-1.092-.62-.26-1.31-.39-2.077-.39s-1.458.13-2.078.39c-.62.262-1.152.624-1.597 1.092-.444.467-.784 1.02-1.02 1.664-.24.644-.357 1.34-.357 2.09zM192.146 288.06h3.582v12.952h6.638v3.307h-10.22v-16.26zM207.052 288.06h3.583v16.26h-3.583v-16.26zM216.65 288.06h4.87l6.91 11.3h.048v-11.3h3.582v16.26h-4.686l-7.098-11.574h-.045v11.573h-3.583v-16.26h.003zM244.462 288.06h6.293c.827 0 1.61.08 2.354.24.74.16 1.393.43 1.95.804.56.377 1.004.88 1.332 1.517.33.637.494 1.43.494 2.378 0 1.147-.3 2.125-.896 2.93-.6.804-1.47 1.31-2.618 1.526l4.134 6.865h-4.295l-3.396-6.5h-1.77v6.5h-3.583v-16.26zm3.583 6.728h2.112c.32 0 .66-.013 1.022-.035.357-.022.683-.092.974-.206.29-.115.533-.295.725-.54s.286-.59.286-1.032c0-.414-.084-.742-.252-.988-.17-.244-.385-.432-.645-.562-.262-.13-.56-.218-.897-.264-.337-.046-.666-.068-.987-.068h-2.343l.002 3.696zM261.732 302.344c0-.29.054-.566.16-.826.106-.26.256-.485.447-.68.19-.19.416-.34.677-.445.26-.107.537-.162.828-.162.29 0 .564.056.825.163.26.106.486.256.68.446.19.19.34.417.445.678.106.26.16.535.16.826s-.054.566-.16.826c-.106.262-.256.486-.446.678-.192.192-.42.342-.68.448s-.536.16-.825.16c-.29 0-.568-.054-.828-.16-.26-.106-.485-.257-.678-.448-.192-.19-.342-.416-.448-.678-.106-.26-.16-.535-.16-.826z"/>
	<path fill="#8596A0" d="M150.55 322.688V322l.783-.074c.15-.01.172-.054.172-.214v-5.806c0-.16-.02-.204-.172-.215l-.782-.073v-.686h3.204v.687l-.824.085c-.16.02-.172.043-.172.204v5.795c0 .172.012.192.172.215l.824.086v.688h-3.203zM163.234 322.688l-3.717-6.127v5.143c0 .17.012.192.172.214l.717.086v.686h-2.753v-.687l.675-.075c.148-.02.17-.054.17-.214v-5.806c0-.16-.02-.204-.17-.216l-.676-.073v-.697h2.324l3.63 6.105v-5.12c0-.16-.02-.204-.17-.216l-.675-.073v-.688h2.752v.687l-.717.084c-.16.02-.172.043-.172.204v6.78h-1.392zM170.704 322.688v-.696l1.104-.075c.148-.012.17-.055.17-.214v-5.85h-1.435c-.118 0-.15.012-.172.118l-.17.933h-.9v-1.97h6.61v1.97h-.89l-.172-.932c-.02-.105-.055-.116-.172-.116h-1.445v5.85c0 .148.012.19.17.2l1.18.088v.696h-3.876zM179.575 322.688V322l.675-.074c.15-.02.172-.054.172-.214v-5.795c0-.16-.02-.204-.172-.215l-.675-.074v-.696h5.506v1.928l-.91-.043-.148-.823c-.02-.107-.063-.14-.183-.14h-2.165v2.463h2.722v.933h-2.722v2.528h2.4c.116 0 .15-.012.17-.118l.172-.942h.9v1.97h-5.742zM192.956 322.688v-.676l.707-.097-.804-2.024c-.13-.33-.3-.46-.665-.46h-.91v2.27c0 .172.01.192.172.215l.686.086v.688h-2.945V322l.675-.074c.15-.02.172-.054.172-.214v-5.795c0-.16-.02-.204-.172-.215l-.675-.074v-.696h3.428c1.93 0 2.44 1.05 2.44 2.12 0 1.125-.6 1.735-1.444 2.067.333.16.44.417.645.932l.643 1.64c.085.16.16.182.32.203l.653.106v.688h-2.927zm-.878-4.168c.91 0 1.69-.246 1.69-1.414 0-.984-.6-1.24-1.767-1.24h-.717v2.654h.795zM203.82 322.688V322l.88-.096-.493-1.445h-2.86l-.493 1.444.857.097v.688h-2.677v-.676l.46-.117c.13-.033.226-.074.27-.203l2.355-6.76h1.51l2.368 6.78c.042.128.128.15.257.183l.492.117v.676h-2.925zm-1.015-6.568h-.033l-1.146 3.396h2.313l-1.135-3.396zM215.98 322.236c-.6.386-1.64.578-2.613.578-2.635 0-3.706-1.617-3.706-4.05 0-2.28 1.297-3.974 3.91-3.974.922 0 1.832.225 2.39.59v1.874l-.91-.063-.183-1.038c-.012-.098-.043-.15-.15-.183-.332-.107-.75-.193-1.2-.193-1.553 0-2.55 1.027-2.55 2.988 0 2.045.943 3.073 2.477 3.073.438 0 .975-.042 1.328-.182.105-.032.148-.064.17-.203l.172-.986h.867v1.77zM220.814 322.688v-.696l1.104-.075c.148-.012.17-.055.17-.214v-5.85h-1.434c-.118 0-.15.012-.172.118l-.172.933h-.9v-1.97h6.61v1.97h-.89l-.172-.932c-.02-.105-.055-.116-.17-.116h-1.447v5.85c0 .148.013.19.173.2l1.178.088v.696h-3.876zM229.46 322.688V322l.783-.074c.15-.01.172-.054.172-.214v-5.806c0-.16-.02-.204-.172-.215l-.782-.073v-.686h3.204v.687l-.825.085c-.16.02-.172.043-.172.204v5.795c0 .172.012.192.17.215l.826.086v.688h-3.203zM236.03 318.787c0-2.27 1.284-3.995 3.77-3.995 2.484 0 3.566 1.726 3.566 3.878 0 2.518-1.222 4.146-3.718 4.146-2.527-.002-3.62-1.67-3.62-4.03zm6.05-.02c0-1.972-.877-2.936-2.29-2.936-1.447 0-2.465.977-2.465 2.945 0 2.067.932 3 2.366 3 1.415 0 2.39-.888 2.39-3.01zM251.713 322.688l-3.717-6.127v5.143c0 .17.01.192.17.214l.72.086v.686h-2.754v-.687l.675-.075c.15-.02.172-.054.172-.214v-5.806c0-.16-.022-.204-.173-.216l-.675-.073v-.697h2.325l3.63 6.105v-5.12c0-.16-.02-.204-.17-.216l-.676-.073v-.688h2.754v.687l-.717.084c-.16.02-.172.043-.172.204v6.78h-1.392zM150.562 334.932v-.687l.674-.075c.15-.02.173-.054.173-.214v-5.795c0-.16-.022-.203-.174-.215l-.674-.073v-.696h3.31c2.69 0 3.846 1.445 3.846 3.76 0 2.38-1.253 3.996-4.026 3.996h-3.13zm3.05-.933c1.983 0 2.82-1.137 2.82-2.947 0-2.217-.944-2.945-2.755-2.945h-1.018V334h.953zM160.697 334.932v-.687l.675-.075c.15-.02.172-.054.172-.214v-5.795c0-.16-.02-.203-.172-.215l-.675-.073v-.696h5.506v1.928l-.91-.043-.15-.823c-.02-.106-.062-.14-.182-.14h-2.163v2.464h2.72v.934h-2.72v2.528h2.398c.12 0 .15-.012.173-.12l.17-.94h.9v1.97h-5.74zM174.604 329.275l-.15-.89c-.02-.118-.042-.172-.105-.204-.13-.073-.462-.17-.944-.17-.984 0-1.467.438-1.467 1.113 0 .813.75 1.05 1.585 1.308 1.05.32 2.238.687 2.238 2.292 0 1.703-1.328 2.336-2.902 2.336-.976 0-1.972-.246-2.335-.418v-1.886h.91l.215.966c.03.14.043.17.183.213.15.043.558.16 1.092.16 1.007 0 1.597-.385 1.597-1.21 0-.856-.738-1.104-1.563-1.34-1.063-.31-2.262-.608-2.262-2.237 0-1.574 1.21-2.27 2.765-2.27.91 0 1.66.233 2.067.395v1.93l-.926-.085zM179.66 334.932v-.687l.783-.075c.15-.01.172-.054.172-.214v-5.806c0-.162-.02-.205-.172-.215l-.782-.074v-.686h3.203v.687l-.824.085c-.16.02-.172.043-.172.205v5.795c0 .17.01.19.17.214l.825.085v.687h-3.202zM193.417 332.007c-.13.01-.172.042-.172.15v2.43c-.728.355-1.777.474-2.646.474-2.915 0-3.954-1.725-3.954-4.05 0-2.27 1.285-3.974 3.92-3.974.857 0 1.8.203 2.4.6v1.832l-.922-.075-.172-.975c-.02-.118-.042-.172-.148-.203-.332-.107-.805-.193-1.232-.193-1.562 0-2.538 1.104-2.538 2.98 0 1.972.953 3.084 2.71 3.084.386 0 .878-.053 1.19-.128.095-.02.147-.055.147-.184v-1.703h-1.35l.14-.802h3.075v.696l-.448.043zM202.812 334.932l-3.717-6.127v5.14c0 .173.012.194.172.216l.717.087v.686h-2.752v-.686l.675-.075c.15-.02.172-.054.172-.214v-5.807c0-.16-.022-.202-.173-.214l-.675-.074v-.695h2.324l3.63 6.105v-5.12c0-.16-.02-.204-.17-.216l-.676-.074v-.686h2.753v.686l-.717.086c-.16.02-.172.043-.172.203v6.782h-1.392zM208.738 334.932v-.687l.676-.075c.15-.02.172-.054.172-.214v-5.795c0-.16-.02-.203-.172-.215l-.676-.073v-.696h5.507v1.928l-.91-.043-.15-.823c-.02-.106-.062-.14-.182-.14h-2.164v2.464h2.72v.934h-2.72v2.528h2.398c.117 0 .15-.012.172-.12l.17-.94h.9v1.97h-5.742zM222.12 334.932v-.676l.707-.097-.804-2.025c-.13-.332-.3-.46-.664-.46h-.91v2.27c0 .17.01.19.17.214l.687.085v.687h-2.945v-.687l.675-.075c.15-.02.172-.054.172-.214v-5.795c0-.16-.022-.203-.173-.215l-.675-.073v-.696h3.428c1.93 0 2.44 1.05 2.44 2.12 0 1.125-.6 1.735-1.444 2.067.333.16.44.418.645.933l.644 1.64c.085.16.16.182.32.203l.653.105v.687h-2.927zm-.878-4.168c.91 0 1.69-.246 1.69-1.414 0-.984-.6-1.242-1.767-1.242h-.718v2.656h.795z"/>
	<g>
	  <path fill="#CDD0D1" d="M65.035 244C26.89 244 0 268.04 0 297.693c0 49.736 29.118 67.45 65.035 67.45 35.918 0 65.034-17.714 65.034-67.45 0-29.654-26.89-53.693-65.035-53.693zm42.225 102.344c-10.804 9.777-25.734 13.844-42.225 13.844-16.564 0-31.554-4.104-42.37-13.98-10.717-9.782-17.343-25.224-17.343-47.95 0-27.23 24.69-49.3 59.713-49.3 35.024 0 59.712 22.07 59.712 49.3 0 22.826-6.683 38.31-17.487 48.086z"/>
	  <path fill="#8596A0" d="M92.21 317.777c7.273-16.153 1.34-32.84-27.175-32.84-5.793 0-10.653.688-14.66 1.92-.616.19-1.213.393-1.79.606-.866.322-1.685.675-2.46 1.05-11.9 5.768-13.494 17.655-8.267 29.264 1.986 4.412 4.747 7.912 7.756 10.678l-22.95 17.754c10.816 9.872 25.806 13.978 42.37 13.978 16.49 0 31.42-4.065 42.225-13.844l-22.94-17.766c3.063-2.785 5.875-6.32 7.89-10.8z"/>
	</g>
  </g>
</svg>