<svg xmlns="http://www.w3.org/2000/svg" width="290" height="108" viewBox="0 0 290 108">
  <style>
    .st0{fill:#76868E;} .st1{fill:#9AAEB7;}
  </style>
  <path class="st0" d="M153.6 36.3c-.4-.5-.9-.8-1.4-1.1-.6-.3-1.2-.4-2-.4s-1.4.1-2.1.4c-.6.3-1.2.7-1.7 1.2s-.8 1.1-1.1 1.9c-.3.7-.4 1.5-.4 2.3 0 .9.1 1.6.4 2.3.3.7.6 1.3 1.1 1.8.5.5 1 .9 1.6 1.2.6.3 1.3.4 2 .4.8 0 1.5-.2 2.2-.5.6-.3 1.2-.8 1.6-1.4l3.3 2.5c-.8 1.1-1.7 1.9-2.9 2.4s-2.4.8-3.6.8c-1.4 0-2.7-.2-3.9-.7-1.2-.4-2.2-1.1-3.1-1.9-.9-.8-1.5-1.8-2-3s-.7-2.5-.7-3.9.2-2.8.7-3.9c.5-1.2 1.2-2.2 2-3 .9-.8 1.9-1.5 3.1-1.9 1.2-.4 2.5-.7 3.9-.7.5 0 1 0 1.6.1.6.1 1.1.2 1.6.4s1.1.5 1.5.8c.5.3.9.8 1.3 1.3l-3 2.6zm7.8 4.4c0-1.4.2-2.8.7-3.9.5-1.2 1.2-2.2 2-3 .9-.8 1.9-1.5 3.1-1.9 1.2-.4 2.5-.7 3.9-.7s2.7.2 3.9.7c1.2.4 2.2 1.1 3.1 1.9.9.8 1.5 1.8 2 3s.7 2.5.7 3.9c0 1.5-.2 2.8-.7 3.9-.5 1.2-1.2 2.2-2 3-.9.8-1.9 1.5-3.1 1.9-1.2.4-2.5.7-3.9.7s-2.7-.2-3.9-.7c-1.2-.4-2.2-1.1-3.1-1.9-.9-.8-1.5-1.8-2-3-.4-1.2-.7-2.5-.7-3.9zm4.2 0c0 .9.1 1.6.4 2.3.3.7.6 1.3 1.1 1.8.5.5 1.1.9 1.8 1.2.7.3 1.5.4 2.3.4.9 0 1.6-.1 2.3-.4.7-.3 1.3-.7 1.8-1.2s.9-1.1 1.1-1.8c.3-.7.4-1.5.4-2.3 0-.8-.1-1.6-.4-2.3-.3-.7-.6-1.3-1.1-1.9-.5-.5-1.1-.9-1.8-1.2-.7-.3-1.5-.4-2.3-.4-.9 0-1.6.1-2.3.4-.7.3-1.3.7-1.8 1.2s-.9 1.1-1.1 1.9c-.3.7-.4 1.4-.4 2.3zm21.3-9.1h4V46h7.4v3.7h-11.4V31.6zm16.6 0h4v18.1h-4V31.6zm10.8 0h5.4l7.7 12.6h.1V31.6h4v18.1h-5.2l-7.9-12.9h-.1v12.9h-4V31.6zm31 0h7c.9 0 1.8.1 2.6.3.8.2 1.6.5 2.2.9.6.4 1.1 1 1.5 1.7.4.7.6 1.6.6 2.6 0 1.3-.3 2.4-1 3.3-.7.9-1.6 1.5-2.9 1.7l4.6 7.7H255l-3.8-7.2h-2v7.2h-4V31.6zm4 7.5h3.5c.4 0 .8-.1 1.1-.2.3-.1.6-.3.8-.6.2-.3.3-.7.3-1.2s-.1-.8-.3-1.1c-.2-.3-.4-.5-.7-.6-.3-.1-.6-.2-1-.3-.4-.1-.7-.1-1.1-.1h-2.6v4.1zm15.2 8.4c0-.3.1-.6.2-.9.1-.3.3-.5.5-.8s.5-.4.8-.5c.3-.1.6-.2.9-.2.3 0 .6.1.9.2.3.1.5.3.8.5s.4.5.5.8c.1.3.2.6.2.9 0 .3-.1.6-.2.9-.1.3-.3.5-.5.8-.2.2-.5.4-.8.5-.3.1-.6.2-.9.2-.3 0-.6-.1-.9-.2-.3-.1-.5-.3-.8-.5-.2-.2-.4-.5-.5-.8-.1-.2-.2-.5-.2-.9z"/>
  <path class="st1" d="M148 70.2l-1.5-5.4-1.5 5.4h-1.9l-2-8.1c-.1-.2-.1-.2-.3-.2l-.7-.1.1-.8h3.5v.8l-1.1.1 1.6 6.8h.1l1.6-5.9h1.6l1.6 6h.1l1.6-6.9-1.1-.1.1-.8h3.2v.8l-.6.1c-.2 0-.2.1-.3.2l-2 8.1H148zm8.9 0v-.8l.8-.1c.2 0 .2-.1.2-.3v-6.9c0-.2 0-.2-.2-.3l-.8-.1v-.8h6.6v2.3l-1.1-.1-.2-1c0-.1-.1-.2-.2-.2h-2.6v2.9h3.3v1.1h-3.3v3h2.9c.1 0 .2 0 .2-.1l.2-1.1h1.1v2.4h-6.9zm11.5 0v-.8l.8-.1c.2 0 .2-.1.2-.3v-6.9c0-.2 0-.2-.2-.3l-.8-.1v-.8h4c2.2 0 2.8 1 2.8 2.3 0 1.2-.8 1.9-1.6 2.1 1.5.2 2.2 1 2.2 2.3 0 1.9-1.4 2.6-3.5 2.6h-3.9zm3.4-5.3c1 0 2-.2 2-1.5 0-1.1-.7-1.4-1.8-1.4h-1.1v2.9h.9zm.3 4.1c1.2 0 2.1-.2 2.1-1.5 0-1.2-.8-1.5-1.9-1.5h-1.5v3h1.3zm14.3 1.2v-.8l.8-.1c.2 0 .2-.1.2-.3v-6.9c0-.2 0-.2-.2-.3l-.8-.1v-.8h4c3.2 0 4.6 1.7 4.6 4.5s-1.5 4.8-4.8 4.8h-3.8zM190 69c2.4 0 3.4-1.4 3.4-3.5 0-2.6-1.1-3.5-3.3-3.5h-1.2v7h1.1zm9.5 1.2v-.8l.8-.1c.2 0 .2-.1.2-.3v-6.9c0-.2 0-.2-.2-.3l-.8-.1v-.8h6.6v2.3l-1.1-.1-.2-1c0-.1-.1-.2-.2-.2H202v2.9h3.3v1.1H202v3h2.9c.1 0 .2 0 .2-.1l.2-1.1h1.1v2.4h-6.9zm14.2 0l-2.7-8.1c-.1-.2-.2-.2-.3-.2l-.6-.1.1-.8h3.3v.8l-1 .1 2.2 7h.1l2.2-7-1-.1.1-.8h3v.8l-.5.1c-.2 0-.3.1-.3.2l-2.5 8.1h-2.1zm9.4 0v-.8l.8-.1c.2 0 .2-.1.2-.3v-6.9c0-.2 0-.2-.2-.3l-.8-.1v-.8h6.6v2.3l-1.1-.1-.2-1c0-.1-.1-.2-.2-.2h-2.6v2.9h3.3v1.1h-3.3v3h2.9c.1 0 .2 0 .2-.1l.2-1.1h1.1v2.4h-6.9zm11.5 0v-.8l.8-.1c.2 0 .2-.1.2-.3v-6.9c0-.2 0-.2-.2-.3l-.8-.1v-.8h3.8v.8l-1.1.1c-.2 0-.2.1-.2.2v7h2.9c.1 0 .2 0 .2-.1l.2-1.2h1.1v2.4h-6.9zm10.9-4.7c0-2.7 1.5-4.8 4.5-4.8s4.3 2.1 4.3 4.6c0 3-1.5 5-4.4 5-3 0-4.4-2-4.4-4.8zm7.3 0c0-2.4-1-3.5-2.7-3.5-1.7 0-2.9 1.2-2.9 3.5 0 2.5 1.1 3.6 2.8 3.6 1.6 0 2.8-1.1 2.8-3.6zm6.1 4.7v-.8l.8-.1c.2 0 .2-.1.2-.3v-6.9c0-.2 0-.2-.2-.3l-.8-.1v-.8h4.1c2.4 0 3.1 1.3 3.1 2.7 0 2.2-1.3 3.1-3.5 3.1h-1.2V69c0 .2 0 .2.2.3l1.8.1v.8h-4.5zm3.5-4.6c1.1 0 2.1-.2 2.1-1.9 0-1.3-.7-1.7-2-1.7h-1.2v3.6h1.1zm8.2 4.6v-.8l.8-.1c.2 0 .2-.1.2-.3v-6.9c0-.2 0-.2-.2-.3l-.8-.1v-.8h6.6v2.3l-1.1-.1-.2-1c0-.1-.1-.2-.2-.2h-2.6v2.9h3.3v1.1h-3.3v3h2.9c.1 0 .2 0 .2-.1l.2-1.1h1.1v2.4h-6.9zm15.9 0v-.8l.8-.1-1-2.4c-.2-.4-.4-.6-.8-.6h-1.1V69c0 .2 0 .2.2.3l.8.1v.8H282v-.8l.8-.1c.2 0 .2-.1.2-.3v-6.9c0-.2 0-.2-.2-.3l-.8-.1v-.8h4.1c2.3 0 2.9 1.3 2.9 2.5 0 1.3-.7 2.1-1.7 2.5.4.2.5.5.8 1.1l.8 2c.1.2.2.2.4.2l.8.1v.8h-3.6zm-1-5c1.1 0 2-.3 2-1.7 0-1.2-.7-1.5-2.1-1.5h-.9v3.2h1zM75.2 75.4c3-2.7 5.4-6 7-9.6-.1.3-.2.5-.3.6l.3-.6c1.7-3.9 2.4-5.4 2.5-5.6-.2.4-1.8 4.1-2.5 5.6 1.8-4 2.9-8.6 2.4-13-.5-4.2-2.6-7.9-5.8-10.6-4.3-3.5-10-4.9-15.5-5.4-1.8-.2-3.6-.3-5.5-.2-2 0-3.7.1-5.5.2-5.5.5-11.2 1.9-15.6 5.4-3.3 2.7-5.3 6.4-5.8 10.6-.5 4.4.6 9 2.4 13-.7-1.5-2.3-5.2-2.5-5.6.1.2.8 1.7 2.5 5.6.2.4.2.5.3.6l-.3-.6c1.6 3.7 4.1 6.9 7 9.6L17.9 92.8c3.9 3.6 10.6 7.2 15.6 9.1 6.9 2.7 14.3 3.8 21.6 4.1h5.5c7.3-.2 14.7-1.4 21.6-4.1 5-1.9 11.6-5.5 15.6-9.1L75.2 75.4z"/>
  <path class="st0" d="M58 0C24 0 0 21.4 0 47.9 0 92.2 26 108 58 108s58-15.8 58-60.1C116 21.4 92 0 58 0zm37.7 91.2c-9.6 8.7-23 12.3-37.7 12.3-14.8 0-28.1-3.7-37.8-12.5-9.5-8.6-15.5-22.4-15.5-42.6 0-24.3 22-43.9 53.3-43.9s53.3 19.7 53.3 43.9c0 20.3-6 34.1-15.6 42.8z"/>
</svg>
