<svg xmlns="http://www.w3.org/2000/svg" xmlns:xlink="http://www.w3.org/1999/xlink" version="1.1" id="Layer_1" x="0" y="0" viewBox="0 0 620 580" enable-background="new 0 0 620 580" xml:space="preserve">
<path id="Background_3_" opacity="0.06" fill="#FFFFFF" d="M310.4 0.3c-176.7 0-310 111.4-310 259.1 0 279.2 194.2 320.9 310 320.9 115.8 0 310-41.7 310-320.9C620.4 111.6 487.1 0.3 310.4 0.3zM500.3 478.1c-48.6 44-115.7 62.3-189.9 62.3 -74.5 0-141.9-18.5-190.5-62.9 -48.2-44-78-113.4-78-215.6 0-122.4 111-221.7 268.5-221.7s268.5 99.3 268.5 221.7C578.9 364.5 548.8 434.2 500.3 478.1z"/>
</svg>