<svg xmlns="http://www.w3.org/2000/svg" xmlns:xlink="http://www.w3.org/1999/xlink" version="1.1" id="Layer_1" x="0" y="0" viewBox="0 0 314 126" enable-background="new 0 0 314 126" xml:space="preserve">
<g id="Logo_2_">
<path fill="#FFFFFF" d="M179.2 42.4c-0.5-0.6-1-1-1.7-1.3 -0.7-0.3-1.4-0.4-2.3-0.4 -0.9 0-1.7 0.2-2.4 0.5 -0.7 0.3-1.4 0.8-1.9 1.4 -0.5 0.6-1 1.3-1.3 2.2 -0.3 0.8-0.5 1.7-0.5 2.7 0 1 0.2 1.9 0.5 2.7 0.3 0.8 0.7 1.5 1.3 2.1 0.5 0.6 1.2 1.1 1.9 1.4 0.7 0.3 1.5 0.5 2.3 0.5 1 0 1.8-0.2 2.5-0.6 0.7-0.4 1.3-1 1.8-1.7l3.9 2.9c-0.9 1.3-2 2.2-3.4 2.8 -1.4 0.6-2.8 0.9-4.2 0.9 -1.7 0-3.2-0.3-4.6-0.8 -1.4-0.5-2.6-1.3-3.6-2.2 -1-1-1.8-2.1-2.4-3.5 -0.6-1.4-0.9-2.9-0.9-4.6 0-1.7 0.3-3.2 0.9-4.6 0.6-1.4 1.4-2.5 2.4-3.5 1-1 2.2-1.7 3.6-2.2 1.4-0.5 2.9-0.8 4.6-0.8 0.6 0 1.2 0.1 1.9 0.2 0.6 0.1 1.3 0.3 1.9 0.5 0.6 0.2 1.2 0.6 1.8 1 0.6 0.4 1.1 0.9 1.6 1.5L179.2 42.4z"/>
<path fill="#FFFFFF" d="M188.3 47.5c0-1.7 0.3-3.2 0.9-4.6 0.6-1.4 1.4-2.5 2.4-3.5 1-1 2.2-1.7 3.6-2.2 1.4-0.5 2.9-0.8 4.6-0.8 1.7 0 3.2 0.3 4.6 0.8 1.4 0.5 2.6 1.3 3.6 2.2 1 1 1.8 2.1 2.4 3.5 0.6 1.4 0.9 2.9 0.9 4.6 0 1.7-0.3 3.2-0.9 4.6 -0.6 1.4-1.4 2.5-2.4 3.5 -1 1-2.2 1.7-3.6 2.2 -1.4 0.5-2.9 0.8-4.6 0.8 -1.7 0-3.2-0.3-4.6-0.8 -1.4-0.5-2.6-1.3-3.6-2.2 -1-1-1.8-2.1-2.4-3.5C188.6 50.7 188.3 49.1 188.3 47.5zM193.1 47.5c0 1 0.2 1.9 0.5 2.7 0.3 0.8 0.8 1.5 1.3 2.1 0.6 0.6 1.3 1.1 2.1 1.4 0.8 0.3 1.7 0.5 2.7 0.5 1 0 1.9-0.2 2.7-0.5 0.8-0.3 1.5-0.8 2.1-1.4 0.6-0.6 1-1.3 1.3-2.1 0.3-0.8 0.5-1.7 0.5-2.7 0-1-0.2-1.9-0.5-2.7 -0.3-0.8-0.8-1.6-1.3-2.2 -0.6-0.6-1.3-1.1-2.1-1.4 -0.8-0.3-1.7-0.5-2.7-0.5 -1 0-1.9 0.2-2.7 0.5 -0.8 0.3-1.5 0.8-2.1 1.4 -0.6 0.6-1 1.3-1.3 2.2C193.3 45.6 193.1 46.5 193.1 47.5z"/>
<path fill="#FFFFFF" d="M218 36.9h4.7v16.8h8.6V58H218V36.9z"/>
<path fill="#FFFFFF" d="M237.4 36.9h4.7V58h-4.7V36.9z"/>
<path fill="#FFFFFF" d="M249.9 36.9h6.3l9 14.7h0.1V36.9h4.7V58h-6.1l-9.2-15h-0.1v15h-4.7V36.9z"/>
<path fill="#FFFFFF" d="M286 36.9h8.2c1.1 0 2.1 0.1 3.1 0.3 1 0.2 1.8 0.6 2.5 1 0.7 0.5 1.3 1.1 1.7 2 0.4 0.8 0.6 1.9 0.6 3.1 0 1.5-0.4 2.8-1.2 3.8 -0.8 1-1.9 1.7-3.4 2L303 58h-5.6l-4.4-8.4h-2.3V58H286V36.9zM290.7 45.6h2.7c0.4 0 0.9 0 1.3 0 0.5 0 0.9-0.1 1.3-0.3 0.4-0.1 0.7-0.4 0.9-0.7 0.2-0.3 0.4-0.8 0.4-1.3 0-0.5-0.1-1-0.3-1.3 -0.2-0.3-0.5-0.6-0.8-0.7 -0.3-0.2-0.7-0.3-1.2-0.3 -0.4-0.1-0.9-0.1-1.3-0.1h-3V45.6z"/>
<path fill="#FFFFFF" d="M308.5 55.5c0-0.4 0.1-0.7 0.2-1.1 0.1-0.3 0.3-0.6 0.6-0.9 0.2-0.2 0.5-0.4 0.9-0.6 0.3-0.1 0.7-0.2 1.1-0.2 0.4 0 0.7 0.1 1.1 0.2 0.3 0.1 0.6 0.3 0.9 0.6 0.2 0.2 0.4 0.5 0.6 0.9 0.1 0.3 0.2 0.7 0.2 1.1 0 0.4-0.1 0.7-0.2 1.1 -0.1 0.3-0.3 0.6-0.6 0.9 -0.2 0.2-0.5 0.4-0.9 0.6 -0.3 0.1-0.7 0.2-1.1 0.2 -0.4 0-0.7-0.1-1.1-0.2 -0.3-0.1-0.6-0.3-0.9-0.6 -0.2-0.2-0.4-0.5-0.6-0.9C308.6 56.2 308.5 55.8 308.5 55.5z"/>
<path fill="#E67394" d="M163.9 81.9V81l1-0.1c0.2 0 0.2-0.1 0.2-0.3v-7.6c0-0.2 0-0.3-0.2-0.3l-1-0.1v-0.9h4.2v0.9l-1.1 0.1c-0.2 0-0.2 0.1-0.2 0.3v7.5c0 0.2 0 0.3 0.2 0.3l1.1 0.1v0.9H163.9z"/>
<path fill="#E67394" d="M180.4 81.9l-4.8-8v6.7c0 0.2 0 0.3 0.2 0.3l0.9 0.1v0.9h-3.6V81l0.9-0.1c0.2 0 0.2-0.1 0.2-0.3v-7.6c0-0.2 0-0.3-0.2-0.3l-0.9-0.1v-0.9h3l4.7 7.9v-6.7c0-0.2 0-0.3-0.2-0.3l-0.9-0.1v-0.9h3.6v0.9l-0.9 0.1c-0.2 0-0.2 0.1-0.2 0.3v8.8H180.4z"/>
<path fill="#E67394" d="M190.1 81.9V81l1.4-0.1c0.2 0 0.2-0.1 0.2-0.3V73h-1.9c-0.2 0-0.2 0-0.2 0.2l-0.2 1.2h-1.2v-2.6h8.6v2.6h-1.2l-0.2-1.2c0-0.1-0.1-0.2-0.2-0.2h-1.9v7.6c0 0.2 0 0.3 0.2 0.3l1.5 0.1v0.9H190.1z"/>
<path fill="#E67394" d="M201.7 81.9V81l0.9-0.1c0.2 0 0.2-0.1 0.2-0.3v-7.5c0-0.2 0-0.3-0.2-0.3l-0.9-0.1v-0.9h7.2v2.5l-1.2-0.1 -0.2-1.1c0-0.1-0.1-0.2-0.2-0.2h-2.8v3.2h3.5v1.2h-3.5v3.3h3.1c0.2 0 0.2 0 0.2-0.2l0.2-1.2h1.2v2.6H201.7z"/>
<path fill="#E67394" d="M219.1 81.9V81l0.9-0.1 -1-2.6c-0.2-0.4-0.4-0.6-0.9-0.6h-1.2v3c0 0.2 0 0.3 0.2 0.3L218 81v0.9h-3.8V81l0.9-0.1c0.2 0 0.2-0.1 0.2-0.3v-7.5c0-0.2 0-0.3-0.2-0.3l-0.9-0.1v-0.9h4.5c2.5 0 3.2 1.4 3.2 2.8 0 1.5-0.8 2.3-1.9 2.7 0.4 0.2 0.6 0.5 0.8 1.2l0.8 2.1c0.1 0.2 0.2 0.2 0.4 0.3l0.9 0.1v0.9H219.1zM217.9 76.5c1.2 0 2.2-0.3 2.2-1.8 0-1.3-0.8-1.6-2.3-1.6h-0.9v3.5H217.9z"/>
<path fill="#E67394" d="M233.2 81.9V81l1.1-0.1 -0.6-1.9H230l-0.6 1.9 1.1 0.1v0.9H227V81l0.6-0.2c0.2 0 0.3-0.1 0.3-0.3l3.1-8.8h2l3.1 8.8c0.1 0.2 0.2 0.2 0.3 0.2L237 81v0.9H233.2zM231.9 73.4L231.9 73.4l-1.5 4.4h3L231.9 73.4z"/>
<path fill="#E67394" d="M249 81.3c-0.8 0.5-2.1 0.8-3.4 0.8 -3.4 0-4.8-2.1-4.8-5.3 0-3 1.7-5.2 5.1-5.2 1.2 0 2.4 0.3 3.1 0.8v2.4l-1.2-0.1 -0.2-1.4c0-0.1-0.1-0.2-0.2-0.2 -0.4-0.1-1-0.3-1.6-0.3 -2 0-3.3 1.3-3.3 3.9 0 2.7 1.2 4 3.2 4 0.6 0 1.3-0.1 1.7-0.2 0.1 0 0.2-0.1 0.2-0.3l0.2-1.3h1.1V81.3z"/>
<path fill="#E67394" d="M255.3 81.9V81l1.4-0.1c0.2 0 0.2-0.1 0.2-0.3V73h-1.9c-0.2 0-0.2 0-0.2 0.2l-0.2 1.2h-1.2v-2.6h8.6v2.6h-1.2l-0.2-1.2c0-0.1-0.1-0.2-0.2-0.2h-1.9v7.6c0 0.2 0 0.3 0.2 0.3l1.5 0.1v0.9H255.3z"/>
<path fill="#E67394" d="M266.6 81.9V81l1-0.1c0.2 0 0.2-0.1 0.2-0.3v-7.6c0-0.2 0-0.3-0.2-0.3l-1-0.1v-0.9h4.2v0.9l-1.1 0.1c-0.2 0-0.2 0.1-0.2 0.3v7.5c0 0.2 0 0.3 0.2 0.3l1.1 0.1v0.9H266.6z"/>
<path fill="#E67394" d="M275.1 76.8c0-3 1.7-5.2 4.9-5.2 3.2 0 4.6 2.2 4.6 5 0 3.3-1.6 5.4-4.8 5.4C276.5 82.1 275.1 79.9 275.1 76.8zM283 76.8c0-2.6-1.1-3.8-3-3.8 -1.9 0-3.2 1.3-3.2 3.8 0 2.7 1.2 3.9 3.1 3.9C281.7 80.7 283 79.6 283 76.8z"/>
<path fill="#E67394" d="M295.5 81.9l-4.8-8v6.7c0 0.2 0 0.3 0.2 0.3l0.9 0.1v0.9h-3.6V81l0.9-0.1c0.2 0 0.2-0.1 0.2-0.3v-7.6c0-0.2 0-0.3-0.2-0.3l-0.9-0.1v-0.9h3l4.7 7.9v-6.7c0-0.2 0-0.3-0.2-0.3l-0.9-0.1v-0.9h3.6v0.9l-0.9 0.1c-0.2 0-0.2 0.1-0.2 0.3v8.8H295.5z"/>
<path fill="#E67394" d="M163.9 97.8v-0.9l0.9-0.1c0.2 0 0.2-0.1 0.2-0.3V89c0-0.2 0-0.3-0.2-0.3l-0.9-0.1v-0.9h4.3c3.5 0 5 1.9 5 4.9 0 3.1-1.6 5.2-5.2 5.2H163.9zM167.9 96.6c2.6 0 3.7-1.5 3.7-3.8 0-2.9-1.2-3.8-3.6-3.8h-1.3v7.7H167.9z"/>
<path fill="#E67394" d="M177.1 97.8v-0.9l0.9-0.1c0.2 0 0.2-0.1 0.2-0.3V89c0-0.2 0-0.3-0.2-0.3l-0.9-0.1v-0.9h7.2v2.5l-1.2-0.1 -0.2-1.1c0-0.1-0.1-0.2-0.2-0.2h-2.8v3.2h3.5v1.2h-3.5v3.3h3.1c0.2 0 0.2 0 0.2-0.2l0.2-1.2h1.2v2.6H177.1z"/>
<path fill="#E67394" d="M195.2 90.5l-0.2-1.2c0-0.2-0.1-0.2-0.1-0.3 -0.2-0.1-0.6-0.2-1.2-0.2 -1.3 0-1.9 0.6-1.9 1.4 0 1.1 1 1.4 2.1 1.7 1.4 0.4 2.9 0.9 2.9 3 0 2.2-1.7 3-3.8 3 -1.3 0-2.6-0.3-3-0.5V95h1.2l0.3 1.3c0 0.2 0.1 0.2 0.2 0.3 0.2 0.1 0.7 0.2 1.4 0.2 1.3 0 2.1-0.5 2.1-1.6 0-1.1-1-1.4-2-1.7 -1.4-0.4-2.9-0.8-2.9-2.9 0-2 1.6-3 3.6-3 1.2 0 2.2 0.3 2.7 0.5v2.5L195.2 90.5z"/>
<path fill="#E67394" d="M201.8 97.8v-0.9l1-0.1c0.2 0 0.2-0.1 0.2-0.3V89c0-0.2 0-0.3-0.2-0.3l-1-0.1v-0.9h4.2v0.9l-1.1 0.1c-0.2 0-0.2 0.1-0.2 0.3v7.5c0 0.2 0 0.3 0.2 0.3l1.1 0.1v0.9H201.8z"/>
<path fill="#E67394" d="M219.7 94c-0.2 0-0.2 0.1-0.2 0.2v3.2c-0.9 0.5-2.3 0.6-3.4 0.6 -3.8 0-5.1-2.2-5.1-5.3 0-3 1.7-5.2 5.1-5.2 1.1 0 2.3 0.3 3.1 0.8v2.4l-1.2-0.1 -0.2-1.3c0-0.2-0.1-0.2-0.2-0.3 -0.4-0.1-1-0.3-1.6-0.3 -2 0-3.3 1.4-3.3 3.9 0 2.6 1.2 4 3.5 4 0.5 0 1.1-0.1 1.5-0.2 0.1 0 0.2-0.1 0.2-0.2v-2.2h-1.8l0.2-1h4V94L219.7 94z"/>
<path fill="#E67394" d="M231.9 97.8l-4.8-8v6.7c0 0.2 0 0.3 0.2 0.3l0.9 0.1v0.9h-3.6v-0.9l0.9-0.1c0.2 0 0.2-0.1 0.2-0.3V89c0-0.2 0-0.3-0.2-0.3l-0.9-0.1v-0.9h3l4.7 7.9V89c0-0.2 0-0.3-0.2-0.3l-0.9-0.1v-0.9h3.6v0.9l-0.9 0.1c-0.2 0-0.2 0.1-0.2 0.3v8.8H231.9z"/>
<path fill="#E67394" d="M239.6 97.8v-0.9l0.9-0.1c0.2 0 0.2-0.1 0.2-0.3V89c0-0.2 0-0.3-0.2-0.3l-0.9-0.1v-0.9h7.2v2.5l-1.2-0.1 -0.2-1.1c0-0.1-0.1-0.2-0.2-0.2h-2.8v3.2h3.5v1.2h-3.5v3.3h3.1c0.2 0 0.2 0 0.2-0.2l0.2-1.2h1.2v2.6H239.6z"/>
<path fill="#E67394" d="M257 97.8V97l0.9-0.1 -1-2.6c-0.2-0.4-0.4-0.6-0.9-0.6h-1.2v3c0 0.2 0 0.3 0.2 0.3l0.9 0.1v0.9h-3.8v-0.9l0.9-0.1c0.2 0 0.2-0.1 0.2-0.3V89c0-0.2 0-0.3-0.2-0.3l-0.9-0.1v-0.9h4.5c2.5 0 3.2 1.4 3.2 2.8 0 1.5-0.8 2.3-1.9 2.7 0.4 0.2 0.6 0.5 0.8 1.2l0.8 2.1c0.1 0.2 0.2 0.2 0.4 0.3l0.9 0.1v0.9H257zM255.9 92.4c1.2 0 2.2-0.3 2.2-1.8 0-1.3-0.8-1.6-2.3-1.6h-0.9v3.5H255.9z"/>
<path fill="#E67394" d="M87.7 88c3.5-3.1 6.3-7 8.2-11.2 -0.2 0.4-0.3 0.6-0.3 0.7 0 0 0.1-0.2 0.3-0.7 2-4.5 2.8-6.3 2.9-6.5 -0.2 0.4-2.2 4.8-2.9 6.5 2.1-4.7 3.4-10 2.8-15.2 -0.6-4.9-3-9.3-6.8-12.3 -5.1-4.1-11.7-5.7-18.1-6.3 -2.1-0.2-4.2-0.3-6.4-0.3 -2.4 0-4.3 0.1-6.4 0.3 -6.4 0.6-13.1 2.2-18.1 6.3 -3.8 3.1-6.2 7.5-6.8 12.3 -0.6 5.2 0.7 10.5 2.8 15.2 -0.8-1.7-2.7-6.1-2.9-6.5 0.1 0.2 0.9 2 2.9 6.5 0.2 0.4 0.3 0.6 0.3 0.7 0 0-0.1-0.3-0.3-0.7 1.9 4.3 4.7 8.1 8.2 11.2l-26.2 20.3c4.6 4.2 12.4 8.4 18.2 10.6 8 3.1 16.6 4.5 25.2 4.7 1.1 0 2 0 3.2 0 1.1 0 2.1 0 3.2 0 8.5-0.3 17.2-1.6 25.1-4.7 5.8-2.3 13.5-6.5 18.1-10.6L87.7 88z"/>
<path fill="#FFFFFF" d="M67.7 0C28 0 0 25 0 55.8 0 107.6 30.3 126 67.7 126c37.4 0 67.7-18.4 67.7-70.2C135.3 25 107.3 0 67.7 0zM111.6 106.4c-11.2 10.2-26.8 14.4-43.9 14.4 -17.2 0-32.8-4.3-44.1-14.5 -11.1-10.2-18-26.2-18-49.9 0-28.3 25.7-51.3 62.1-51.3s62.1 23 62.1 51.3C129.8 80.2 122.8 96.3 111.6 106.4z"/>
</g>
</svg>