<svg version="1.2" baseProfile="tiny" xmlns="http://www.w3.org/2000/svg" width="48" height="72" viewBox="0 0 48 72">
  <path fill="#76868E" d="M24 12c0 1.104-.896 2-2 2H2c-1.104 0-2-.896-2-2s.896-2 2-2h20c1.104 0 2 .896 2 2z"/>
  <path fill="#76868E" d="M12 0c1.104 0 2 .896 2 2v20c0 1.104-.896 2-2 2s-2-.896-2-2V2c0-1.104.896-2 2-2z"/>
  <path fill="#FFF" d="M24 36c0 1.104-.896 2-2 2H2c-1.104 0-2-.896-2-2s.896-2 2-2h20c1.104 0 2 .896 2 2z"/>
  <path fill="#FFF" d="M12 24c1.104 0 2 .896 2 2v20c0 1.104-.896 2-2 2s-2-.896-2-2V26c0-1.104.896-2 2-2z"/>
  <path fill="#CDD0D1" d="M24 60c0 1.104-.896 2-2 2H2c-1.104 0-2-.896-2-2s.896-2 2-2h20c1.104 0 2 .896 2 2z"/>
  <path fill="#CDD0D1" d="M12 48c1.104 0 2 .896 2 2v20c0 1.104-.896 2-2 2s-2-.896-2-2V50c0-1.104.896-2 2-2z"/>
  <path fill="#9AAEB7" d="M48 12c0 1.104-.896 2-2 2H26c-1.104 0-2-.896-2-2s.896-2 2-2h20c1.104 0 2 .896 2 2z"/>
  <path fill="#9AAEB7" d="M36 0c1.104 0 2 .896 2 2v20c0 1.104-.896 2-2 2s-2-.896-2-2V2c0-1.104.896-2 2-2z"/>
  <path fill="#CEF" d="M48 36c0 1.104-.896 2-2 2H26c-1.104 0-2-.896-2-2s.896-2 2-2h20c1.104 0 2 .896 2 2z"/>
  <path fill="#CEF" d="M36 24c1.104 0 2 .896 2 2v20c0 1.104-.896 2-2 2s-2-.896-2-2V26c0-1.104.896-2 2-2z"/>
  <path fill="#8596A0" d="M48 60c0 1.104-.896 2-2 2H26c-1.104 0-2-.896-2-2s.896-2 2-2h20c1.104 0 2 .896 2 2z"/>
  <path fill="#8596A0" d="M36 48c1.104 0 2 .896 2 2v20c0 1.104-.896 2-2 2s-2-.896-2-2V50c0-1.104.896-2 2-2z"/>
</svg>