<svg xmlns="http://www.w3.org/2000/svg" xmlns:xlink="http://www.w3.org/1999/xlink" version="1.1" id="Layer_1" x="0" y="0" viewBox="0 0 30 25" enable-background="new 0 0 30 25" xml:space="preserve">
<path fill="#FFFFFF" d="M30 3.2c-1.2 0.5-2.4 0.8-3.5 1 1.3-0.8 2.2-1.9 2.7-3.4 -1.2 0.7-2.5 1.2-3.9 1.5C24 1 22.5 0.3 20.8 0.3c-1.7 0-3.1 0.6-4.3 1.8 -1.2 1.2-1.8 2.6-1.8 4.3 0 0.5 0 0.9 0.2 1.4C12.3 7.7 9.9 7.1 7.7 6 5.5 4.8 3.6 3.3 2.1 1.4c-0.6 1-0.8 2-0.8 3.1 0 1.1 0.2 2 0.7 2.9 0.5 0.9 1.2 1.6 2 2.2 -1 0-1.9-0.3-2.8-0.8V9c0 1.5 0.5 2.8 1.4 3.9C3.6 14 4.7 14.7 6.1 15c-0.5 0.1-1.1 0.2-1.6 0.2 -0.4 0-0.7 0-1.2-0.1 0.4 1.2 1.1 2.2 2.2 3 1.1 0.8 2.2 1.2 3.6 1.2C6.9 21.1 4.3 22 1.5 22c-0.5 0-1 0-1.5-0.1 2.9 1.8 6 2.8 9.4 2.8 2.2 0 4.2-0.3 6.1-1 1.9-0.7 3.6-1.6 4.9-2.8 1.4-1.2 2.5-2.5 3.5-4 1-1.5 1.7-3.1 2.2-4.7 0.5-1.6 0.7-3.3 0.7-4.9 0-0.4 0-0.6 0-0.8C28.1 5.5 29.1 4.5 30 3.2L30 3.2zM30 3.2"/>
</svg>