<?xml version="1.0" encoding="utf-8"?>
<!-- Generator: Adobe Illustrator 16.2.1, SVG Export Plug-In . SVG Version: 6.00 Build 0)  -->
<!DOCTYPE svg PUBLIC "-//W3C//DTD SVG 1.1//EN" "http://www.w3.org/Graphics/SVG/1.1/DTD/svg11.dtd">
<svg version="1.1" id="Layer_1" xmlns="http://www.w3.org/2000/svg" xmlns:xlink="http://www.w3.org/1999/xlink" x="0px" y="0px"
	 width="270px" height="366px" viewBox="0 0 270 366" enable-background="new 0 0 270 366" xml:space="preserve">
<g>
	<g>
		<g>
			<path fill="#76868E" d="M162.292,48.284c-0.353-0.428-0.785-0.758-1.298-0.987c-0.514-0.23-1.106-0.345-1.78-0.345
				s-1.297,0.13-1.871,0.391s-1.072,0.624-1.493,1.091c-0.421,0.467-0.75,1.022-0.987,1.665s-0.356,1.34-0.356,2.09
				c0,0.766,0.119,1.466,0.356,2.102s0.562,1.187,0.976,1.653c0.414,0.467,0.899,0.831,1.459,1.091
				c0.559,0.261,1.159,0.391,1.803,0.391c0.734,0,1.386-0.153,1.952-0.459c0.566-0.306,1.033-0.735,1.4-1.286l2.985,2.228
				c-0.688,0.965-1.562,1.677-2.617,2.136c-1.057,0.459-2.145,0.689-3.262,0.689c-1.271,0-2.442-0.199-3.514-0.597
				c-1.072-0.398-1.998-0.968-2.779-1.711c-0.78-0.743-1.389-1.642-1.825-2.699c-0.437-1.056-0.654-2.235-0.654-3.537
				s0.218-2.48,0.654-3.537c0.437-1.057,1.045-1.956,1.825-2.699c0.781-0.742,1.707-1.312,2.779-1.711
				c1.071-0.398,2.243-0.597,3.514-0.597c0.459,0,0.938,0.042,1.436,0.126c0.497,0.084,0.987,0.218,1.47,0.402
				s0.945,0.429,1.39,0.735c0.443,0.307,0.842,0.682,1.194,1.125L162.292,48.284z"/>
			<path fill="#76868E" d="M169.273,52.188c0-1.301,0.218-2.48,0.654-3.537c0.437-1.057,1.045-1.956,1.825-2.699
				c0.781-0.742,1.707-1.312,2.779-1.711c1.071-0.398,2.243-0.597,3.514-0.597s2.442,0.199,3.514,0.597
				c1.071,0.398,1.998,0.969,2.779,1.711c0.78,0.743,1.39,1.642,1.825,2.699c0.437,1.056,0.655,2.235,0.655,3.537
				s-0.219,2.48-0.655,3.537c-0.436,1.057-1.045,1.956-1.825,2.699c-0.781,0.743-1.708,1.313-2.779,1.711s-2.243,0.597-3.514,0.597
				s-2.442-0.199-3.514-0.597c-1.072-0.398-1.998-0.968-2.779-1.711c-0.78-0.743-1.389-1.642-1.825-2.699
				C169.491,54.669,169.273,53.49,169.273,52.188z M172.993,52.188c0,0.766,0.119,1.466,0.356,2.102s0.577,1.187,1.021,1.653
				c0.444,0.467,0.977,0.831,1.597,1.091c0.62,0.261,1.312,0.391,2.078,0.391s1.458-0.13,2.078-0.391
				c0.62-0.26,1.152-0.624,1.597-1.091c0.443-0.467,0.784-1.018,1.021-1.653s0.356-1.336,0.356-2.102c0-0.75-0.119-1.447-0.356-2.09
				s-0.578-1.198-1.021-1.665c-0.444-0.467-0.977-0.831-1.597-1.091s-1.312-0.391-2.078-0.391s-1.458,0.13-2.078,0.391
				s-1.152,0.624-1.597,1.091c-0.444,0.467-0.784,1.022-1.021,1.665S172.993,51.438,172.993,52.188z"/>
			<path fill="#76868E" d="M192.146,44.059h3.583v12.953h6.637v3.307h-10.22V44.059z"/>
			<path fill="#76868E" d="M207.052,44.059h3.583v16.26h-3.583V44.059z"/>
			<path fill="#76868E" d="M216.65,44.059h4.869l6.912,11.299h0.047V44.059h3.582v16.26h-4.685l-7.097-11.575h-0.046v11.575h-3.583
				V44.059z"/>
			<path fill="#76868E" d="M244.462,44.059h6.293c0.827,0,1.611,0.08,2.354,0.241c0.743,0.161,1.394,0.429,1.952,0.804
				c0.559,0.375,1.003,0.88,1.332,1.516c0.329,0.636,0.494,1.428,0.494,2.377c0,1.148-0.299,2.125-0.896,2.928
				c-0.598,0.804-1.47,1.313-2.618,1.527l4.134,6.867h-4.295l-3.398-6.5h-1.769v6.5h-3.583V44.059z M248.045,50.788h2.112
				c0.322,0,0.662-0.012,1.022-0.035c0.359-0.023,0.685-0.092,0.976-0.207s0.532-0.294,0.724-0.54s0.287-0.589,0.287-1.034
				c0-0.413-0.084-0.742-0.252-0.987c-0.169-0.245-0.384-0.433-0.644-0.563c-0.261-0.13-0.559-0.218-0.896-0.264
				s-0.666-0.069-0.987-0.069h-2.343V50.788z"/>
			<path fill="#76868E" d="M261.732,58.343c0-0.291,0.054-0.566,0.161-0.827c0.106-0.26,0.256-0.486,0.447-0.678
				c0.191-0.191,0.417-0.34,0.678-0.448c0.26-0.107,0.536-0.161,0.827-0.161c0.29,0,0.565,0.054,0.826,0.161
				c0.261,0.107,0.486,0.257,0.678,0.448c0.191,0.192,0.341,0.417,0.447,0.678c0.107,0.26,0.161,0.536,0.161,0.827
				c0,0.291-0.054,0.566-0.161,0.827c-0.106,0.261-0.256,0.486-0.447,0.678s-0.417,0.341-0.678,0.448s-0.536,0.161-0.826,0.161
				c-0.291,0-0.567-0.054-0.827-0.161c-0.261-0.107-0.486-0.256-0.678-0.448s-0.341-0.417-0.447-0.678
				C261.786,58.91,261.732,58.634,261.732,58.343z"/>
			<path fill="#9AAEB7" d="M150.551,78.687v-0.686l0.782-0.075c0.15-0.011,0.172-0.054,0.172-0.214v-5.806
				c0-0.161-0.021-0.204-0.172-0.215l-0.782-0.074v-0.686h3.203v0.686l-0.825,0.085c-0.16,0.021-0.171,0.043-0.171,0.204v5.795
				c0,0.171,0.011,0.192,0.171,0.214l0.825,0.086v0.686H150.551z"/>
			<path fill="#9AAEB7" d="M163.235,78.687l-3.717-6.127v5.142c0,0.171,0.011,0.192,0.171,0.214l0.718,0.086v0.686h-2.753v-0.686
				l0.675-0.075c0.15-0.021,0.172-0.054,0.172-0.214v-5.806c0-0.161-0.021-0.204-0.172-0.215l-0.675-0.074v-0.696h2.325l3.631,6.105
				v-5.12c0-0.161-0.021-0.204-0.171-0.215l-0.676-0.074v-0.686h2.753v0.686l-0.717,0.085c-0.161,0.021-0.172,0.043-0.172,0.204
				v6.78H163.235z"/>
			<path fill="#9AAEB7" d="M170.704,78.687V77.99l1.104-0.075c0.149-0.011,0.171-0.054,0.171-0.214v-5.849h-1.435
				c-0.118,0-0.15,0.011-0.172,0.118l-0.171,0.932h-0.9v-1.971h6.609v1.971h-0.889l-0.172-0.932
				c-0.021-0.107-0.054-0.118-0.171-0.118h-1.446v5.849c0,0.149,0.011,0.192,0.171,0.203l1.179,0.086v0.696H170.704z"/>
			<path fill="#9AAEB7" d="M179.575,78.687v-0.686l0.675-0.075c0.15-0.021,0.172-0.054,0.172-0.214v-5.795
				c0-0.161-0.021-0.204-0.172-0.215l-0.675-0.074v-0.696h5.506v1.928l-0.91-0.043l-0.15-0.824c-0.021-0.107-0.063-0.14-0.182-0.14
				h-2.164v2.464h2.721v0.932h-2.721v2.528h2.399c0.118,0,0.15-0.011,0.172-0.118l0.171-0.942h0.9v1.971H179.575z"/>
			<path fill="#9AAEB7" d="M192.956,78.687v-0.675l0.707-0.097l-0.803-2.024c-0.129-0.332-0.3-0.461-0.664-0.461h-0.911v2.271
				c0,0.171,0.011,0.192,0.172,0.214l0.686,0.086v0.686h-2.946v-0.686l0.675-0.075c0.15-0.021,0.172-0.054,0.172-0.214v-5.795
				c0-0.161-0.021-0.204-0.172-0.215l-0.675-0.074v-0.696h3.428c1.929,0,2.442,1.05,2.442,2.12c0,1.125-0.6,1.735-1.446,2.067
				c0.333,0.161,0.439,0.418,0.644,0.933l0.643,1.639c0.085,0.16,0.16,0.182,0.321,0.203l0.653,0.107v0.686H192.956z M192.078,74.52
				c0.91,0,1.692-0.246,1.692-1.414c0-0.985-0.6-1.242-1.768-1.242h-0.718v2.656H192.078z"/>
			<path fill="#9AAEB7" d="M203.821,78.687v-0.686l0.878-0.097l-0.492-1.445h-2.86l-0.493,1.445l0.857,0.097v0.686h-2.678v-0.675
				l0.46-0.118c0.129-0.032,0.226-0.074,0.269-0.203l2.356-6.759h1.51l2.368,6.78c0.042,0.128,0.128,0.149,0.257,0.182l0.492,0.118
				v0.675H203.821z M202.804,72.12h-0.032l-1.146,3.396h2.314L202.804,72.12z"/>
			<path fill="#9AAEB7" d="M215.98,78.236c-0.6,0.386-1.639,0.579-2.613,0.579c-2.635,0-3.706-1.618-3.706-4.05
				c0-2.281,1.296-3.974,3.909-3.974c0.922,0,1.832,0.225,2.389,0.589v1.875l-0.91-0.064l-0.182-1.039
				c-0.011-0.097-0.043-0.15-0.15-0.182c-0.332-0.107-0.75-0.193-1.2-0.193c-1.553,0-2.549,1.028-2.549,2.988
				c0,2.046,0.942,3.074,2.475,3.074c0.438,0,0.975-0.042,1.328-0.182c0.106-0.032,0.149-0.064,0.171-0.203l0.172-0.986h0.867
				V78.236z"/>
			<path fill="#9AAEB7" d="M220.814,78.687V77.99l1.104-0.075c0.149-0.011,0.171-0.054,0.171-0.214v-5.849h-1.435
				c-0.118,0-0.15,0.011-0.172,0.118l-0.171,0.932h-0.9v-1.971h6.609v1.971h-0.889l-0.172-0.932
				c-0.021-0.107-0.054-0.118-0.171-0.118h-1.446v5.849c0,0.149,0.011,0.192,0.171,0.203l1.179,0.086v0.696H220.814z"/>
			<path fill="#9AAEB7" d="M229.461,78.687v-0.686l0.782-0.075c0.15-0.011,0.172-0.054,0.172-0.214v-5.806
				c0-0.161-0.021-0.204-0.172-0.215l-0.782-0.074v-0.686h3.203v0.686l-0.825,0.085c-0.16,0.021-0.171,0.043-0.171,0.204v5.795
				c0,0.171,0.011,0.192,0.171,0.214l0.825,0.086v0.686H229.461z"/>
			<path fill="#9AAEB7" d="M236.029,74.787c0-2.271,1.285-3.995,3.771-3.995c2.484,0,3.566,1.725,3.566,3.878
				c0,2.517-1.221,4.146-3.717,4.146C237.121,78.815,236.029,77.145,236.029,74.787z M242.081,74.766
				c0-1.971-0.878-2.935-2.292-2.935c-1.446,0-2.464,0.975-2.464,2.945c0,2.067,0.932,3,2.367,3
				C241.106,77.776,242.081,76.887,242.081,74.766z"/>
			<path fill="#9AAEB7" d="M251.713,78.687l-3.717-6.127v5.142c0,0.171,0.011,0.192,0.171,0.214l0.718,0.086v0.686h-2.753v-0.686
				l0.675-0.075c0.15-0.021,0.172-0.054,0.172-0.214v-5.806c0-0.161-0.021-0.204-0.172-0.215l-0.675-0.074v-0.696h2.325l3.631,6.105
				v-5.12c0-0.161-0.021-0.204-0.172-0.215l-0.675-0.074v-0.686h2.753v0.686l-0.717,0.085c-0.161,0.021-0.172,0.043-0.172,0.204
				v6.78H251.713z"/>
			<path fill="#9AAEB7" d="M150.562,90.931v-0.686l0.675-0.075c0.15-0.021,0.172-0.054,0.172-0.214v-5.795
				c0-0.161-0.021-0.204-0.172-0.215l-0.675-0.074v-0.696h3.311c2.688,0,3.845,1.445,3.845,3.76c0,2.378-1.253,3.995-4.027,3.995
				H150.562z M153.614,89.999c1.982,0,2.817-1.136,2.817-2.946c0-2.217-0.942-2.945-2.753-2.945h-1.018v5.892H153.614z"/>
			<path fill="#9AAEB7" d="M160.697,90.931v-0.686l0.675-0.075c0.15-0.021,0.172-0.054,0.172-0.214v-5.795
				c0-0.161-0.021-0.204-0.172-0.215l-0.675-0.074v-0.696h5.506v1.928l-0.91-0.043l-0.15-0.824c-0.021-0.107-0.063-0.14-0.182-0.14
				h-2.164v2.464h2.721v0.932h-2.721v2.528h2.399c0.118,0,0.15-0.011,0.172-0.118l0.171-0.942h0.9v1.971H160.697z"/>
			<path fill="#9AAEB7" d="M174.604,85.275l-0.15-0.89c-0.021-0.118-0.043-0.171-0.107-0.203c-0.128-0.075-0.46-0.172-0.942-0.172
				c-0.985,0-1.468,0.439-1.468,1.114c0,0.814,0.75,1.05,1.586,1.307c1.05,0.321,2.238,0.686,2.238,2.292
				c0,1.703-1.328,2.336-2.902,2.336c-0.976,0-1.972-0.247-2.336-0.418v-1.886h0.911l0.214,0.965
				c0.032,0.139,0.043,0.171,0.183,0.214c0.149,0.043,0.557,0.16,1.092,0.16c1.007,0,1.597-0.385,1.597-1.21
				c0-0.857-0.739-1.104-1.564-1.339c-1.061-0.311-2.26-0.61-2.26-2.239c0-1.574,1.21-2.271,2.764-2.271
				c0.91,0,1.66,0.235,2.067,0.396v1.928L174.604,85.275z"/>
			<path fill="#9AAEB7" d="M179.661,90.931v-0.686l0.782-0.075c0.15-0.011,0.172-0.054,0.172-0.214V84.15
				c0-0.161-0.021-0.204-0.172-0.215l-0.782-0.074v-0.686h3.203v0.686l-0.825,0.085c-0.16,0.021-0.171,0.043-0.171,0.204v5.795
				c0,0.171,0.011,0.192,0.171,0.214l0.825,0.086v0.686H179.661z"/>
			<path fill="#9AAEB7" d="M193.417,88.007c-0.129,0.011-0.172,0.042-0.172,0.149v2.432c-0.728,0.354-1.777,0.472-2.646,0.472
				c-2.913,0-3.952-1.725-3.952-4.05c0-2.271,1.285-3.974,3.92-3.974c0.857,0,1.8,0.203,2.399,0.6v1.832l-0.921-0.075l-0.172-0.975
				c-0.021-0.118-0.042-0.172-0.149-0.203c-0.332-0.107-0.804-0.193-1.232-0.193c-1.563,0-2.538,1.104-2.538,2.978
				c0,1.972,0.953,3.085,2.71,3.085c0.386,0,0.878-0.053,1.189-0.128c0.096-0.021,0.149-0.054,0.149-0.183V88.07h-1.35l0.14-0.803
				h3.074v0.696L193.417,88.007z"/>
			<path fill="#9AAEB7" d="M202.813,90.931l-3.717-6.127v5.142c0,0.171,0.011,0.192,0.171,0.214l0.718,0.086v0.686h-2.753v-0.686
				l0.675-0.075c0.15-0.021,0.172-0.054,0.172-0.214V84.15c0-0.161-0.021-0.204-0.172-0.215l-0.675-0.074v-0.696h2.325l3.631,6.105
				v-5.12c0-0.161-0.021-0.204-0.171-0.215l-0.676-0.074v-0.686h2.753v0.686l-0.717,0.085c-0.161,0.021-0.172,0.043-0.172,0.204
				v6.78H202.813z"/>
			<path fill="#9AAEB7" d="M208.739,90.931v-0.686l0.675-0.075c0.15-0.021,0.172-0.054,0.172-0.214v-5.795
				c0-0.161-0.021-0.204-0.172-0.215l-0.675-0.074v-0.696h5.506v1.928l-0.91-0.043l-0.15-0.824c-0.021-0.107-0.063-0.14-0.182-0.14
				h-2.164v2.464h2.721v0.932h-2.721v2.528h2.399c0.118,0,0.15-0.011,0.172-0.118l0.171-0.942h0.9v1.971H208.739z"/>
			<path fill="#9AAEB7" d="M222.12,90.931v-0.675l0.707-0.097l-0.803-2.024c-0.129-0.332-0.3-0.461-0.664-0.461h-0.911v2.271
				c0,0.171,0.011,0.192,0.172,0.214l0.686,0.086v0.686h-2.946v-0.686l0.675-0.075c0.15-0.021,0.172-0.054,0.172-0.214v-5.795
				c0-0.161-0.021-0.204-0.172-0.215l-0.675-0.074v-0.696h3.428c1.929,0,2.442,1.05,2.442,2.12c0,1.125-0.6,1.735-1.446,2.067
				c0.333,0.161,0.439,0.418,0.644,0.933l0.643,1.639c0.085,0.16,0.16,0.182,0.321,0.203l0.653,0.107v0.686H222.12z M221.242,86.764
				c0.91,0,1.692-0.246,1.692-1.414c0-0.985-0.6-1.242-1.768-1.242h-0.718v2.656H221.242z"/>
		</g>
	</g>
	<g>
		<path fill="#76868E" d="M65.035,0C26.89,0,0,24.039,0,53.693c0,49.736,29.118,67.451,65.035,67.451
			c35.918,0,65.034-17.715,65.034-67.451C130.069,24.039,103.181,0,65.035,0z M107.26,102.344
			c-10.804,9.777-25.734,13.844-42.225,13.844c-16.564,0-31.554-4.105-42.37-13.979C11.948,92.426,5.322,76.984,5.322,54.258
			c0-27.229,24.691-49.301,59.713-49.301c35.024,0,59.712,22.072,59.712,49.301C124.747,77.084,118.064,92.568,107.26,102.344z"/>
		<path fill="#9AAEB7" d="M92.211,73.777c7.272-16.153,1.34-32.839-27.176-32.839c-5.793,0-10.653,0.688-14.66,1.919
			c-0.616,0.191-1.213,0.392-1.791,0.608c-0.865,0.322-1.684,0.673-2.46,1.049c-11.898,5.767-13.493,17.655-8.266,29.263
			c1.986,4.412,4.747,7.912,7.756,10.678h0l0,0l-22.95,17.754c10.816,9.873,25.806,13.979,42.37,13.979
			c16.491,0,31.421-4.066,42.225-13.844L84.32,84.578C87.383,81.793,90.195,78.258,92.211,73.777z"/>
	</g>
</g>
<g>
	<g>
		<g>
			<path fill="#CDD0D1" d="M162.292,170.284c-0.353-0.428-0.785-0.758-1.298-0.987c-0.514-0.229-1.106-0.345-1.78-0.345
				s-1.297,0.131-1.871,0.391c-0.574,0.261-1.072,0.624-1.493,1.091c-0.421,0.468-0.75,1.022-0.987,1.665
				c-0.237,0.644-0.356,1.34-0.356,2.09c0,0.766,0.119,1.467,0.356,2.102c0.237,0.636,0.562,1.187,0.976,1.653
				c0.414,0.468,0.899,0.831,1.459,1.091c0.559,0.261,1.159,0.391,1.803,0.391c0.734,0,1.386-0.152,1.952-0.459
				s1.033-0.735,1.4-1.286l2.985,2.228c-0.688,0.965-1.562,1.677-2.617,2.136c-1.057,0.459-2.145,0.689-3.262,0.689
				c-1.271,0-2.442-0.199-3.514-0.598c-1.072-0.397-1.998-0.968-2.779-1.711c-0.78-0.742-1.389-1.642-1.825-2.698
				s-0.654-2.235-0.654-3.537c0-1.301,0.218-2.48,0.654-3.536c0.437-1.057,1.045-1.956,1.825-2.699
				c0.781-0.742,1.707-1.312,2.779-1.711c1.071-0.397,2.243-0.597,3.514-0.597c0.459,0,0.938,0.042,1.436,0.126
				c0.497,0.085,0.987,0.219,1.47,0.402s0.945,0.429,1.39,0.734c0.443,0.307,0.842,0.682,1.194,1.126L162.292,170.284z"/>
			<path fill="#CDD0D1" d="M169.273,174.188c0-1.301,0.218-2.48,0.654-3.536c0.437-1.057,1.045-1.956,1.825-2.699
				c0.781-0.742,1.707-1.312,2.779-1.711c1.071-0.397,2.243-0.597,3.514-0.597s2.442,0.199,3.514,0.597
				c1.071,0.398,1.998,0.969,2.779,1.711c0.78,0.743,1.39,1.643,1.825,2.699c0.437,1.056,0.655,2.235,0.655,3.536
				c0,1.302-0.219,2.48-0.655,3.537c-0.436,1.057-1.045,1.956-1.825,2.698c-0.781,0.743-1.708,1.313-2.779,1.711
				c-1.071,0.398-2.243,0.598-3.514,0.598s-2.442-0.199-3.514-0.598c-1.072-0.397-1.998-0.968-2.779-1.711
				c-0.78-0.742-1.389-1.642-1.825-2.698S169.273,175.49,169.273,174.188z M172.993,174.188c0,0.766,0.119,1.467,0.356,2.102
				c0.237,0.636,0.577,1.187,1.021,1.653c0.444,0.468,0.977,0.831,1.597,1.091c0.62,0.261,1.312,0.391,2.078,0.391
				s1.458-0.13,2.078-0.391c0.62-0.26,1.152-0.623,1.597-1.091c0.443-0.467,0.784-1.018,1.021-1.653
				c0.237-0.635,0.356-1.336,0.356-2.102c0-0.75-0.119-1.446-0.356-2.09c-0.237-0.643-0.578-1.197-1.021-1.665
				c-0.444-0.467-0.977-0.83-1.597-1.091c-0.62-0.26-1.312-0.391-2.078-0.391s-1.458,0.131-2.078,0.391
				c-0.62,0.261-1.152,0.624-1.597,1.091c-0.444,0.468-0.784,1.022-1.021,1.665C173.112,172.742,172.993,173.438,172.993,174.188z"
				/>
			<path fill="#CDD0D1" d="M192.146,166.059h3.583v12.953h6.637v3.307h-10.22V166.059z"/>
			<path fill="#CDD0D1" d="M207.052,166.059h3.583v16.26h-3.583V166.059z"/>
			<path fill="#CDD0D1" d="M216.65,166.059h4.869l6.912,11.3h0.047v-11.3h3.582v16.26h-4.685l-7.097-11.574h-0.046v11.574h-3.583
				V166.059z"/>
			<path fill="#CDD0D1" d="M244.462,166.059h6.293c0.827,0,1.611,0.08,2.354,0.241c0.743,0.161,1.394,0.429,1.952,0.804
				c0.559,0.376,1.003,0.881,1.332,1.516c0.329,0.636,0.494,1.428,0.494,2.377c0,1.148-0.299,2.125-0.896,2.929
				c-0.598,0.804-1.47,1.312-2.618,1.527l4.134,6.866h-4.295l-3.398-6.499h-1.769v6.499h-3.583V166.059z M248.045,172.788h2.112
				c0.322,0,0.662-0.012,1.022-0.035c0.359-0.022,0.685-0.092,0.976-0.206c0.291-0.115,0.532-0.295,0.724-0.54
				s0.287-0.589,0.287-1.033c0-0.413-0.084-0.742-0.252-0.987c-0.169-0.245-0.384-0.433-0.644-0.563
				c-0.261-0.13-0.559-0.218-0.896-0.264s-0.666-0.069-0.987-0.069h-2.343V172.788z"/>
			<path fill="#CDD0D1" d="M261.732,180.344c0-0.291,0.054-0.566,0.161-0.827c0.106-0.26,0.256-0.485,0.447-0.678
				c0.191-0.19,0.417-0.34,0.678-0.447c0.26-0.107,0.536-0.161,0.827-0.161c0.29,0,0.565,0.054,0.826,0.161s0.486,0.257,0.678,0.447
				c0.191,0.192,0.341,0.418,0.447,0.678c0.107,0.261,0.161,0.536,0.161,0.827s-0.054,0.566-0.161,0.826
				c-0.106,0.261-0.256,0.486-0.447,0.678s-0.417,0.341-0.678,0.448c-0.261,0.106-0.536,0.16-0.826,0.16
				c-0.291,0-0.567-0.054-0.827-0.16c-0.261-0.107-0.486-0.257-0.678-0.448s-0.341-0.417-0.447-0.678
				C261.786,180.91,261.732,180.635,261.732,180.344z"/>
			<path fill="#8596A0" d="M150.551,200.687v-0.686l0.782-0.075c0.15-0.011,0.172-0.054,0.172-0.214v-5.806
				c0-0.161-0.021-0.204-0.172-0.215l-0.782-0.074v-0.686h3.203v0.686l-0.825,0.085c-0.16,0.021-0.171,0.043-0.171,0.204v5.795
				c0,0.171,0.011,0.192,0.171,0.214l0.825,0.086v0.686H150.551z"/>
			<path fill="#8596A0" d="M163.235,200.687l-3.717-6.127v5.142c0,0.171,0.011,0.192,0.171,0.214l0.718,0.086v0.686h-2.753v-0.686
				l0.675-0.075c0.15-0.021,0.172-0.054,0.172-0.214v-5.806c0-0.161-0.021-0.204-0.172-0.215l-0.675-0.074v-0.696h2.325l3.631,6.105
				v-5.12c0-0.161-0.021-0.204-0.171-0.215l-0.676-0.074v-0.686h2.753v0.686l-0.717,0.085c-0.161,0.021-0.172,0.043-0.172,0.204
				v6.78H163.235z"/>
			<path fill="#8596A0" d="M170.704,200.687v-0.696l1.104-0.075c0.149-0.011,0.171-0.054,0.171-0.214v-5.849h-1.435
				c-0.118,0-0.15,0.011-0.172,0.118l-0.171,0.932h-0.9v-1.971h6.609v1.971h-0.889l-0.172-0.932
				c-0.021-0.107-0.054-0.118-0.171-0.118h-1.446v5.849c0,0.149,0.011,0.192,0.171,0.203l1.179,0.086v0.696H170.704z"/>
			<path fill="#8596A0" d="M179.575,200.687v-0.686l0.675-0.075c0.15-0.021,0.172-0.054,0.172-0.214v-5.795
				c0-0.161-0.021-0.204-0.172-0.215l-0.675-0.074v-0.696h5.506v1.928l-0.91-0.043l-0.15-0.824c-0.021-0.107-0.063-0.14-0.182-0.14
				h-2.164v2.464h2.721v0.932h-2.721v2.528h2.399c0.118,0,0.15-0.011,0.172-0.118l0.171-0.942h0.9v1.971H179.575z"/>
			<path fill="#8596A0" d="M192.956,200.687v-0.675l0.707-0.097l-0.803-2.024c-0.129-0.332-0.3-0.461-0.664-0.461h-0.911v2.271
				c0,0.171,0.011,0.192,0.172,0.214l0.686,0.086v0.686h-2.946v-0.686l0.675-0.075c0.15-0.021,0.172-0.054,0.172-0.214v-5.795
				c0-0.161-0.021-0.204-0.172-0.215l-0.675-0.074v-0.696h3.428c1.929,0,2.442,1.05,2.442,2.12c0,1.125-0.6,1.735-1.446,2.067
				c0.333,0.161,0.439,0.418,0.644,0.933l0.643,1.639c0.085,0.16,0.16,0.182,0.321,0.203l0.653,0.107v0.686H192.956z
				 M192.078,196.52c0.91,0,1.692-0.246,1.692-1.414c0-0.985-0.6-1.242-1.768-1.242h-0.718v2.656H192.078z"/>
			<path fill="#8596A0" d="M203.821,200.687v-0.686l0.878-0.097l-0.492-1.445h-2.86l-0.493,1.445l0.857,0.097v0.686h-2.678v-0.675
				l0.46-0.118c0.129-0.032,0.226-0.074,0.269-0.203l2.356-6.759h1.51l2.368,6.78c0.042,0.128,0.128,0.149,0.257,0.182l0.492,0.118
				v0.675H203.821z M202.804,194.12h-0.032l-1.146,3.396h2.314L202.804,194.12z"/>
			<path fill="#8596A0" d="M215.98,200.236c-0.6,0.386-1.639,0.579-2.613,0.579c-2.635,0-3.706-1.618-3.706-4.05
				c0-2.281,1.296-3.974,3.909-3.974c0.922,0,1.832,0.225,2.389,0.589v1.875l-0.91-0.064l-0.182-1.039
				c-0.011-0.097-0.043-0.15-0.15-0.182c-0.332-0.107-0.75-0.193-1.2-0.193c-1.553,0-2.549,1.028-2.549,2.988
				c0,2.046,0.942,3.074,2.475,3.074c0.438,0,0.975-0.042,1.328-0.182c0.106-0.032,0.149-0.064,0.171-0.203l0.172-0.986h0.867
				V200.236z"/>
			<path fill="#8596A0" d="M220.814,200.687v-0.696l1.104-0.075c0.149-0.011,0.171-0.054,0.171-0.214v-5.849h-1.435
				c-0.118,0-0.15,0.011-0.172,0.118l-0.171,0.932h-0.9v-1.971h6.609v1.971h-0.889l-0.172-0.932
				c-0.021-0.107-0.054-0.118-0.171-0.118h-1.446v5.849c0,0.149,0.011,0.192,0.171,0.203l1.179,0.086v0.696H220.814z"/>
			<path fill="#8596A0" d="M229.461,200.687v-0.686l0.782-0.075c0.15-0.011,0.172-0.054,0.172-0.214v-5.806
				c0-0.161-0.021-0.204-0.172-0.215l-0.782-0.074v-0.686h3.203v0.686l-0.825,0.085c-0.16,0.021-0.171,0.043-0.171,0.204v5.795
				c0,0.171,0.011,0.192,0.171,0.214l0.825,0.086v0.686H229.461z"/>
			<path fill="#8596A0" d="M236.029,196.787c0-2.271,1.285-3.995,3.771-3.995c2.484,0,3.566,1.725,3.566,3.878
				c0,2.517-1.221,4.146-3.717,4.146C237.121,200.815,236.029,199.145,236.029,196.787z M242.081,196.766
				c0-1.971-0.878-2.935-2.292-2.935c-1.446,0-2.464,0.975-2.464,2.945c0,2.067,0.932,3,2.367,3
				C241.106,199.776,242.081,198.887,242.081,196.766z"/>
			<path fill="#8596A0" d="M251.713,200.687l-3.717-6.127v5.142c0,0.171,0.011,0.192,0.171,0.214l0.718,0.086v0.686h-2.753v-0.686
				l0.675-0.075c0.15-0.021,0.172-0.054,0.172-0.214v-5.806c0-0.161-0.021-0.204-0.172-0.215l-0.675-0.074v-0.696h2.325l3.631,6.105
				v-5.12c0-0.161-0.021-0.204-0.172-0.215l-0.675-0.074v-0.686h2.753v0.686l-0.717,0.085c-0.161,0.021-0.172,0.043-0.172,0.204
				v6.78H251.713z"/>
			<path fill="#8596A0" d="M150.562,212.931v-0.686l0.675-0.075c0.15-0.021,0.172-0.054,0.172-0.214v-5.795
				c0-0.161-0.021-0.204-0.172-0.215l-0.675-0.074v-0.696h3.311c2.688,0,3.845,1.445,3.845,3.76c0,2.378-1.253,3.995-4.027,3.995
				H150.562z M153.614,211.999c1.982,0,2.817-1.136,2.817-2.946c0-2.217-0.942-2.945-2.753-2.945h-1.018v5.892H153.614z"/>
			<path fill="#8596A0" d="M160.697,212.931v-0.686l0.675-0.075c0.15-0.021,0.172-0.054,0.172-0.214v-5.795
				c0-0.161-0.021-0.204-0.172-0.215l-0.675-0.074v-0.696h5.506v1.928l-0.91-0.043l-0.15-0.824c-0.021-0.107-0.063-0.14-0.182-0.14
				h-2.164v2.464h2.721v0.932h-2.721v2.528h2.399c0.118,0,0.15-0.011,0.172-0.118l0.171-0.942h0.9v1.971H160.697z"/>
			<path fill="#8596A0" d="M174.604,207.275l-0.15-0.89c-0.021-0.118-0.043-0.171-0.107-0.203c-0.128-0.075-0.46-0.172-0.942-0.172
				c-0.985,0-1.468,0.439-1.468,1.114c0,0.814,0.75,1.05,1.586,1.307c1.05,0.321,2.238,0.686,2.238,2.292
				c0,1.703-1.328,2.336-2.902,2.336c-0.976,0-1.972-0.247-2.336-0.418v-1.886h0.911l0.214,0.965
				c0.032,0.139,0.043,0.171,0.183,0.214c0.149,0.043,0.557,0.16,1.092,0.16c1.007,0,1.597-0.385,1.597-1.21
				c0-0.857-0.739-1.104-1.564-1.339c-1.061-0.311-2.26-0.61-2.26-2.239c0-1.574,1.21-2.271,2.764-2.271
				c0.91,0,1.66,0.235,2.067,0.396v1.928L174.604,207.275z"/>
			<path fill="#8596A0" d="M179.661,212.931v-0.686l0.782-0.075c0.15-0.011,0.172-0.054,0.172-0.214v-5.806
				c0-0.161-0.021-0.204-0.172-0.215l-0.782-0.074v-0.686h3.203v0.686l-0.825,0.085c-0.16,0.021-0.171,0.043-0.171,0.204v5.795
				c0,0.171,0.011,0.192,0.171,0.214l0.825,0.086v0.686H179.661z"/>
			<path fill="#8596A0" d="M193.417,210.007c-0.129,0.011-0.172,0.042-0.172,0.149v2.432c-0.728,0.354-1.777,0.472-2.646,0.472
				c-2.913,0-3.952-1.725-3.952-4.05c0-2.271,1.285-3.974,3.92-3.974c0.857,0,1.8,0.203,2.399,0.6v1.832l-0.921-0.075l-0.172-0.975
				c-0.021-0.118-0.042-0.172-0.149-0.203c-0.332-0.107-0.804-0.193-1.232-0.193c-1.563,0-2.538,1.104-2.538,2.978
				c0,1.972,0.953,3.085,2.71,3.085c0.386,0,0.878-0.053,1.189-0.128c0.096-0.021,0.149-0.054,0.149-0.183v-1.703h-1.35l0.14-0.803
				h3.074v0.696L193.417,210.007z"/>
			<path fill="#8596A0" d="M202.813,212.931l-3.717-6.127v5.142c0,0.171,0.011,0.192,0.171,0.214l0.718,0.086v0.686h-2.753v-0.686
				l0.675-0.075c0.15-0.021,0.172-0.054,0.172-0.214v-5.806c0-0.161-0.021-0.204-0.172-0.215l-0.675-0.074v-0.696h2.325l3.631,6.105
				v-5.12c0-0.161-0.021-0.204-0.171-0.215l-0.676-0.074v-0.686h2.753v0.686l-0.717,0.085c-0.161,0.021-0.172,0.043-0.172,0.204
				v6.78H202.813z"/>
			<path fill="#8596A0" d="M208.739,212.931v-0.686l0.675-0.075c0.15-0.021,0.172-0.054,0.172-0.214v-5.795
				c0-0.161-0.021-0.204-0.172-0.215l-0.675-0.074v-0.696h5.506v1.928l-0.91-0.043l-0.15-0.824c-0.021-0.107-0.063-0.14-0.182-0.14
				h-2.164v2.464h2.721v0.932h-2.721v2.528h2.399c0.118,0,0.15-0.011,0.172-0.118l0.171-0.942h0.9v1.971H208.739z"/>
			<path fill="#8596A0" d="M222.12,212.931v-0.675l0.707-0.097l-0.803-2.024c-0.129-0.332-0.3-0.461-0.664-0.461h-0.911v2.271
				c0,0.171,0.011,0.192,0.172,0.214l0.686,0.086v0.686h-2.946v-0.686l0.675-0.075c0.15-0.021,0.172-0.054,0.172-0.214v-5.795
				c0-0.161-0.021-0.204-0.172-0.215l-0.675-0.074v-0.696h3.428c1.929,0,2.442,1.05,2.442,2.12c0,1.125-0.6,1.735-1.446,2.067
				c0.333,0.161,0.439,0.418,0.644,0.933l0.643,1.639c0.085,0.16,0.16,0.182,0.321,0.203l0.653,0.107v0.686H222.12z
				 M221.242,208.764c0.91,0,1.692-0.246,1.692-1.414c0-0.985-0.6-1.242-1.768-1.242h-0.718v2.656H221.242z"/>
		</g>
	</g>
	<g>
		<path fill="#CDD0D1" d="M65.035,122C26.89,122,0,146.039,0,175.693c0,49.736,29.118,67.451,65.035,67.451
			c35.918,0,65.034-17.715,65.034-67.451C130.069,146.039,103.181,122,65.035,122z M107.26,224.344
			c-10.804,9.777-25.734,13.844-42.225,13.844c-16.564,0-31.554-4.105-42.37-13.979c-10.717-9.783-17.343-25.225-17.343-47.951
			c0-27.229,24.691-49.301,59.713-49.301c35.024,0,59.712,22.072,59.712,49.301C124.747,199.084,118.064,214.568,107.26,224.344z"/>
		<path fill="#8596A0" d="M92.211,195.777c7.272-16.153,1.34-32.84-27.176-32.84c-5.793,0-10.653,0.688-14.66,1.92
			c-0.616,0.191-1.213,0.393-1.791,0.607c-0.865,0.322-1.684,0.674-2.46,1.05c-11.898,5.767-13.493,17.655-8.266,29.263
			c1.986,4.412,4.747,7.912,7.756,10.678h0l0,0l-22.95,17.754c10.816,9.873,25.806,13.979,42.37,13.979
			c16.491,0,31.421-4.066,42.225-13.844l-22.94-17.766C87.383,203.793,90.195,200.258,92.211,195.777z"/>
	</g>
</g>
<g>
	<g>
		<g>
			<path fill="#FFFFFF" d="M162.292,292.284c-0.353-0.429-0.785-0.758-1.298-0.987c-0.514-0.23-1.106-0.345-1.78-0.345
				s-1.297,0.13-1.871,0.391s-1.072,0.624-1.493,1.091s-0.75,1.021-0.987,1.665s-0.356,1.34-0.356,2.09
				c0,0.766,0.119,1.466,0.356,2.102s0.562,1.187,0.976,1.653c0.414,0.467,0.899,0.83,1.459,1.091
				c0.559,0.261,1.159,0.391,1.803,0.391c0.734,0,1.386-0.153,1.952-0.46c0.566-0.306,1.033-0.734,1.4-1.285l2.985,2.227
				c-0.688,0.965-1.562,1.678-2.617,2.137c-1.057,0.459-2.145,0.689-3.262,0.689c-1.271,0-2.442-0.199-3.514-0.598
				c-1.072-0.398-1.998-0.969-2.779-1.711c-0.78-0.742-1.389-1.643-1.825-2.699c-0.437-1.056-0.654-2.234-0.654-3.536
				s0.218-2.48,0.654-3.536c0.437-1.057,1.045-1.957,1.825-2.699c0.781-0.742,1.707-1.312,2.779-1.711
				c1.071-0.398,2.243-0.598,3.514-0.598c0.459,0,0.938,0.043,1.436,0.127c0.497,0.084,0.987,0.219,1.47,0.402
				s0.945,0.428,1.39,0.734c0.443,0.307,0.842,0.682,1.194,1.125L162.292,292.284z"/>
			<path fill="#FFFFFF" d="M169.273,296.188c0-1.302,0.218-2.48,0.654-3.536c0.437-1.057,1.045-1.957,1.825-2.699
				c0.781-0.742,1.707-1.312,2.779-1.711c1.071-0.398,2.243-0.598,3.514-0.598s2.442,0.199,3.514,0.598s1.998,0.969,2.779,1.711
				c0.78,0.742,1.39,1.643,1.825,2.699c0.437,1.056,0.655,2.234,0.655,3.536s-0.219,2.48-0.655,3.536
				c-0.436,1.057-1.045,1.957-1.825,2.699c-0.781,0.742-1.708,1.312-2.779,1.711s-2.243,0.598-3.514,0.598s-2.442-0.199-3.514-0.598
				c-1.072-0.398-1.998-0.969-2.779-1.711c-0.78-0.742-1.389-1.643-1.825-2.699C169.491,298.669,169.273,297.49,169.273,296.188z
				 M172.993,296.188c0,0.766,0.119,1.466,0.356,2.102s0.577,1.187,1.021,1.653s0.977,0.83,1.597,1.091s1.312,0.391,2.078,0.391
				s1.458-0.13,2.078-0.391s1.152-0.624,1.597-1.091c0.443-0.467,0.784-1.018,1.021-1.653s0.356-1.336,0.356-2.102
				c0-0.75-0.119-1.446-0.356-2.09s-0.578-1.198-1.021-1.665c-0.444-0.467-0.977-0.83-1.597-1.091s-1.312-0.391-2.078-0.391
				s-1.458,0.13-2.078,0.391s-1.152,0.624-1.597,1.091s-0.784,1.021-1.021,1.665S172.993,295.438,172.993,296.188z"/>
			<path fill="#FFFFFF" d="M192.146,288.059h3.583v12.953h6.637v3.307h-10.22V288.059z"/>
			<path fill="#FFFFFF" d="M207.052,288.059h3.583v16.26h-3.583V288.059z"/>
			<path fill="#FFFFFF" d="M216.65,288.059h4.869l6.912,11.299h0.047v-11.299h3.582v16.26h-4.685l-7.097-11.574h-0.046v11.574
				h-3.583V288.059z"/>
			<path fill="#FFFFFF" d="M244.462,288.059h6.293c0.827,0,1.611,0.08,2.354,0.241c0.743,0.161,1.394,0.429,1.952,0.804
				s1.003,0.881,1.332,1.516c0.329,0.636,0.494,1.428,0.494,2.377c0,1.148-0.299,2.125-0.896,2.928
				c-0.598,0.805-1.47,1.313-2.618,1.527l4.134,6.867h-4.295l-3.398-6.5h-1.769v6.5h-3.583V288.059z M248.045,294.787h2.112
				c0.322,0,0.662-0.012,1.022-0.034c0.359-0.022,0.685-0.092,0.976-0.206c0.291-0.115,0.532-0.295,0.724-0.54
				s0.287-0.589,0.287-1.034c0-0.412-0.084-0.742-0.252-0.986c-0.169-0.246-0.384-0.434-0.644-0.563
				c-0.261-0.13-0.559-0.218-0.896-0.265c-0.337-0.045-0.666-0.068-0.987-0.068h-2.343V294.787z"/>
			<path fill="#FFFFFF" d="M261.732,302.344c0-0.291,0.054-0.566,0.161-0.827c0.106-0.261,0.256-0.485,0.447-0.678
				c0.191-0.19,0.417-0.341,0.678-0.448c0.26-0.106,0.536-0.16,0.827-0.16c0.29,0,0.565,0.054,0.826,0.16
				c0.261,0.107,0.486,0.258,0.678,0.448c0.191,0.192,0.341,0.417,0.447,0.678c0.107,0.261,0.161,0.536,0.161,0.827
				s-0.054,0.566-0.161,0.826c-0.106,0.261-0.256,0.486-0.447,0.678s-0.417,0.341-0.678,0.447c-0.261,0.107-0.536,0.161-0.826,0.161
				c-0.291,0-0.567-0.054-0.827-0.161c-0.261-0.106-0.486-0.256-0.678-0.447s-0.341-0.417-0.447-0.678
				C261.786,302.91,261.732,302.635,261.732,302.344z"/>
			<path fill="#CCEEFF" d="M150.551,322.686V322l0.782-0.074c0.15-0.012,0.172-0.055,0.172-0.215v-5.805
				c0-0.162-0.021-0.205-0.172-0.215l-0.782-0.074v-0.686h3.203v0.686l-0.825,0.084c-0.16,0.021-0.171,0.043-0.171,0.205v5.795
				c0,0.17,0.011,0.191,0.171,0.213l0.825,0.086v0.686H150.551z"/>
			<path fill="#CCEEFF" d="M163.235,322.686l-3.717-6.127v5.143c0,0.17,0.011,0.191,0.171,0.213l0.718,0.086v0.686h-2.753V322
				l0.675-0.074c0.15-0.021,0.172-0.055,0.172-0.215v-5.805c0-0.162-0.021-0.205-0.172-0.215l-0.675-0.074v-0.697h2.325l3.631,6.105
				v-5.119c0-0.162-0.021-0.205-0.171-0.215l-0.676-0.074v-0.686h2.753v0.686l-0.717,0.084c-0.161,0.021-0.172,0.043-0.172,0.205
				v6.779H163.235z"/>
			<path fill="#CCEEFF" d="M170.704,322.686v-0.695l1.104-0.076c0.149-0.01,0.171-0.053,0.171-0.213v-5.85h-1.435
				c-0.118,0-0.15,0.012-0.172,0.119l-0.171,0.932h-0.9v-1.971h6.609v1.971h-0.889l-0.172-0.932
				c-0.021-0.107-0.054-0.119-0.171-0.119h-1.446v5.85c0,0.148,0.011,0.191,0.171,0.203l1.179,0.086v0.695H170.704z"/>
			<path fill="#CCEEFF" d="M179.575,322.686V322l0.675-0.074c0.15-0.021,0.172-0.055,0.172-0.215v-5.795
				c0-0.16-0.021-0.203-0.172-0.215l-0.675-0.074v-0.695h5.506v1.928l-0.91-0.043l-0.15-0.824c-0.021-0.107-0.063-0.141-0.182-0.141
				h-2.164v2.465h2.721v0.932h-2.721v2.527h2.399c0.118,0,0.15-0.01,0.172-0.117l0.171-0.943h0.9v1.971H179.575z"/>
			<path fill="#CCEEFF" d="M192.956,322.686v-0.674l0.707-0.098l-0.803-2.023c-0.129-0.332-0.3-0.461-0.664-0.461h-0.911v2.271
				c0,0.17,0.011,0.191,0.172,0.213l0.686,0.086v0.686h-2.946V322l0.675-0.074c0.15-0.021,0.172-0.055,0.172-0.215v-5.795
				c0-0.16-0.021-0.203-0.172-0.215l-0.675-0.074v-0.695h3.428c1.929,0,2.442,1.049,2.442,2.119c0,1.125-0.6,1.736-1.446,2.068
				c0.333,0.16,0.439,0.418,0.644,0.932l0.643,1.639c0.085,0.16,0.16,0.182,0.321,0.203l0.653,0.107v0.686H192.956z M192.078,318.52
				c0.91,0,1.692-0.246,1.692-1.414c0-0.986-0.6-1.242-1.768-1.242h-0.718v2.656H192.078z"/>
			<path fill="#CCEEFF" d="M203.821,322.686V322l0.878-0.096l-0.492-1.445h-2.86l-0.493,1.445l0.857,0.096v0.686h-2.678v-0.674
				l0.46-0.119c0.129-0.031,0.226-0.074,0.269-0.203l2.356-6.758h1.51l2.368,6.779c0.042,0.129,0.128,0.15,0.257,0.182l0.492,0.119
				v0.674H203.821z M202.804,316.119h-0.032l-1.146,3.396h2.314L202.804,316.119z"/>
			<path fill="#CCEEFF" d="M215.98,322.236c-0.6,0.385-1.639,0.578-2.613,0.578c-2.635,0-3.706-1.617-3.706-4.049
				c0-2.281,1.296-3.975,3.909-3.975c0.922,0,1.832,0.225,2.389,0.59v1.875l-0.91-0.064l-0.182-1.039
				c-0.011-0.098-0.043-0.15-0.15-0.182c-0.332-0.107-0.75-0.193-1.2-0.193c-1.553,0-2.549,1.027-2.549,2.988
				c0,2.045,0.942,3.074,2.475,3.074c0.438,0,0.975-0.043,1.328-0.182c0.106-0.033,0.149-0.064,0.171-0.203l0.172-0.986h0.867
				V322.236z"/>
			<path fill="#CCEEFF" d="M220.814,322.686v-0.695l1.104-0.076c0.149-0.01,0.171-0.053,0.171-0.213v-5.85h-1.435
				c-0.118,0-0.15,0.012-0.172,0.119l-0.171,0.932h-0.9v-1.971h6.609v1.971h-0.889l-0.172-0.932
				c-0.021-0.107-0.054-0.119-0.171-0.119h-1.446v5.85c0,0.148,0.011,0.191,0.171,0.203l1.179,0.086v0.695H220.814z"/>
			<path fill="#CCEEFF" d="M229.461,322.686V322l0.782-0.074c0.15-0.012,0.172-0.055,0.172-0.215v-5.805
				c0-0.162-0.021-0.205-0.172-0.215l-0.782-0.074v-0.686h3.203v0.686l-0.825,0.084c-0.16,0.021-0.171,0.043-0.171,0.205v5.795
				c0,0.17,0.011,0.191,0.171,0.213l0.825,0.086v0.686H229.461z"/>
			<path fill="#CCEEFF" d="M236.029,318.787c0-2.271,1.285-3.996,3.771-3.996c2.484,0,3.566,1.725,3.566,3.879
				c0,2.516-1.221,4.145-3.717,4.145C237.121,322.814,236.029,321.145,236.029,318.787z M242.081,318.766
				c0-1.971-0.878-2.936-2.292-2.936c-1.446,0-2.464,0.975-2.464,2.945c0,2.068,0.932,3,2.367,3
				C241.106,321.775,242.081,320.887,242.081,318.766z"/>
			<path fill="#CCEEFF" d="M251.713,322.686l-3.717-6.127v5.143c0,0.17,0.011,0.191,0.171,0.213l0.718,0.086v0.686h-2.753V322
				l0.675-0.074c0.15-0.021,0.172-0.055,0.172-0.215v-5.805c0-0.162-0.021-0.205-0.172-0.215l-0.675-0.074v-0.697h2.325l3.631,6.105
				v-5.119c0-0.162-0.021-0.205-0.172-0.215l-0.675-0.074v-0.686h2.753v0.686l-0.717,0.084c-0.161,0.021-0.172,0.043-0.172,0.205
				v6.779H251.713z"/>
			<path fill="#CCEEFF" d="M150.562,334.93v-0.686l0.675-0.074c0.15-0.021,0.172-0.055,0.172-0.215v-5.795
				c0-0.16-0.021-0.203-0.172-0.215l-0.675-0.074v-0.695h3.311c2.688,0,3.845,1.445,3.845,3.76c0,2.377-1.253,3.994-4.027,3.994
				H150.562z M153.614,333.998c1.982,0,2.817-1.135,2.817-2.945c0-2.217-0.942-2.945-2.753-2.945h-1.018v5.891H153.614z"/>
			<path fill="#CCEEFF" d="M160.697,334.93v-0.686l0.675-0.074c0.15-0.021,0.172-0.055,0.172-0.215v-5.795
				c0-0.16-0.021-0.203-0.172-0.215l-0.675-0.074v-0.695h5.506v1.928l-0.91-0.043l-0.15-0.824c-0.021-0.107-0.063-0.141-0.182-0.141
				h-2.164v2.465h2.721v0.932h-2.721v2.527h2.399c0.118,0,0.15-0.01,0.172-0.117l0.171-0.943h0.9v1.971H160.697z"/>
			<path fill="#CCEEFF" d="M174.604,329.275l-0.15-0.891c-0.021-0.117-0.043-0.17-0.107-0.203c-0.128-0.074-0.46-0.172-0.942-0.172
				c-0.985,0-1.468,0.439-1.468,1.115c0,0.814,0.75,1.049,1.586,1.307c1.05,0.32,2.238,0.686,2.238,2.291
				c0,1.703-1.328,2.336-2.902,2.336c-0.976,0-1.972-0.246-2.336-0.418v-1.885h0.911l0.214,0.965
				c0.032,0.139,0.043,0.17,0.183,0.213c0.149,0.043,0.557,0.16,1.092,0.16c1.007,0,1.597-0.385,1.597-1.209
				c0-0.857-0.739-1.104-1.564-1.34c-1.061-0.311-2.26-0.609-2.26-2.238c0-1.574,1.21-2.271,2.764-2.271
				c0.91,0,1.66,0.236,2.067,0.396v1.928L174.604,329.275z"/>
			<path fill="#CCEEFF" d="M179.661,334.93v-0.686l0.782-0.074c0.15-0.012,0.172-0.055,0.172-0.215v-5.805
				c0-0.162-0.021-0.205-0.172-0.215l-0.782-0.074v-0.686h3.203v0.686l-0.825,0.084c-0.16,0.021-0.171,0.043-0.171,0.205v5.795
				c0,0.17,0.011,0.191,0.171,0.213l0.825,0.086v0.686H179.661z"/>
			<path fill="#CCEEFF" d="M193.417,332.006c-0.129,0.012-0.172,0.043-0.172,0.15v2.432c-0.728,0.354-1.777,0.471-2.646,0.471
				c-2.913,0-3.952-1.725-3.952-4.049c0-2.271,1.285-3.975,3.92-3.975c0.857,0,1.8,0.203,2.399,0.6v1.832l-0.921-0.074l-0.172-0.975
				c-0.021-0.119-0.042-0.172-0.149-0.203c-0.332-0.107-0.804-0.193-1.232-0.193c-1.563,0-2.538,1.104-2.538,2.977
				c0,1.973,0.953,3.086,2.71,3.086c0.386,0,0.878-0.053,1.189-0.129c0.096-0.021,0.149-0.053,0.149-0.182v-1.703h-1.35l0.14-0.803
				h3.074v0.695L193.417,332.006z"/>
			<path fill="#CCEEFF" d="M202.813,334.93l-3.717-6.127v5.143c0,0.17,0.011,0.191,0.171,0.213l0.718,0.086v0.686h-2.753v-0.686
				l0.675-0.074c0.15-0.021,0.172-0.055,0.172-0.215v-5.805c0-0.162-0.021-0.205-0.172-0.215l-0.675-0.074v-0.697h2.325l3.631,6.105
				v-5.119c0-0.162-0.021-0.205-0.171-0.215l-0.676-0.074v-0.686h2.753v0.686l-0.717,0.084c-0.161,0.021-0.172,0.043-0.172,0.205
				v6.779H202.813z"/>
			<path fill="#CCEEFF" d="M208.739,334.93v-0.686l0.675-0.074c0.15-0.021,0.172-0.055,0.172-0.215v-5.795
				c0-0.16-0.021-0.203-0.172-0.215l-0.675-0.074v-0.695h5.506v1.928l-0.91-0.043l-0.15-0.824c-0.021-0.107-0.063-0.141-0.182-0.141
				h-2.164v2.465h2.721v0.932h-2.721v2.527h2.399c0.118,0,0.15-0.01,0.172-0.117l0.171-0.943h0.9v1.971H208.739z"/>
			<path fill="#CCEEFF" d="M222.12,334.93v-0.674l0.707-0.098l-0.803-2.023c-0.129-0.332-0.3-0.461-0.664-0.461h-0.911v2.271
				c0,0.17,0.011,0.191,0.172,0.213l0.686,0.086v0.686h-2.946v-0.686l0.675-0.074c0.15-0.021,0.172-0.055,0.172-0.215v-5.795
				c0-0.16-0.021-0.203-0.172-0.215l-0.675-0.074v-0.695h3.428c1.929,0,2.442,1.049,2.442,2.119c0,1.125-0.6,1.736-1.446,2.068
				c0.333,0.16,0.439,0.418,0.644,0.932l0.643,1.639c0.085,0.16,0.16,0.182,0.321,0.203l0.653,0.107v0.686H222.12z M221.242,330.764
				c0.91,0,1.692-0.246,1.692-1.414c0-0.986-0.6-1.242-1.768-1.242h-0.718v2.656H221.242z"/>
		</g>
	</g>
	<g>
		<path fill="#FFFFFF" d="M65.035,244C26.89,244,0,268.039,0,297.693c0,49.736,29.118,67.451,65.035,67.451
			c35.918,0,65.034-17.715,65.034-67.451C130.069,268.039,103.181,244,65.035,244z M107.26,346.344
			c-10.804,9.777-25.734,13.844-42.225,13.844c-16.564,0-31.554-4.105-42.37-13.979c-10.717-9.783-17.343-25.225-17.343-47.951
			c0-27.229,24.691-49.301,59.713-49.301c35.024,0,59.712,22.072,59.712,49.301C124.747,321.084,118.064,336.568,107.26,346.344z"/>
		<path fill="#CCEEFF" d="M92.211,317.777c7.272-16.153,1.34-32.84-27.176-32.84c-5.793,0-10.653,0.688-14.66,1.92
			c-0.616,0.191-1.213,0.393-1.791,0.607c-0.865,0.322-1.684,0.674-2.46,1.05c-11.898,5.767-13.493,17.655-8.266,29.263
			c1.986,4.412,4.747,7.912,7.756,10.678h0l0,0l-22.95,17.754c10.816,9.873,25.806,13.979,42.37,13.979
			c16.491,0,31.421-4.066,42.225-13.844l-22.94-17.766C87.383,325.793,90.195,322.258,92.211,317.777z"/>
	</g>
</g>
<g>
</g>
<g>
</g>
<g>
</g>
<g>
</g>
<g>
</g>
<g>
</g>
<g>
</g>
<g>
</g>
<g>
</g>
<g>
</g>
<g>
</g>
<g>
</g>
<g>
</g>
<g>
</g>
<g>
</g>
</svg>
