<?xml version="1.0" encoding="utf-8"?>
<!-- Generator: Adobe Illustrator 16.2.1, SVG Export Plug-In . SVG Version: 6.00 Build 0)  -->
<svg version="1.2" baseProfile="tiny" id="Layer_1" xmlns="http://www.w3.org/2000/svg" xmlns:xlink="http://www.w3.org/1999/xlink"
	 x="0px" y="0px" width="28px" height="18px" viewBox="0 0 28 18" xml:space="preserve">
<g id="Menu_Icon">
	<g>
		<path fill="#76868E" d="M28,2c0,1.104-0.896,2-2,2H2C0.896,4,0,3.104,0,2l0,0c0-1.104,0.896-2,2-2h24C27.104,0,28,0.896,28,2L28,2
			z"/>
	</g>
	<g>
		<path fill="#76868E" d="M28,9c0,1.104-0.896,2-2,2H2c-1.104,0-2-0.896-2-2l0,0c0-1.104,0.896-2,2-2h24C27.104,7,28,7.896,28,9
			L28,9z"/>
	</g>
	<g>
		<path fill="#76868E" d="M28,16c0,1.104-0.896,2-2,2H2c-1.104,0-2-0.896-2-2l0,0c0-1.104,0.896-2,2-2h24C27.104,14,28,14.896,28,16
			L28,16z"/>
	</g>
</g>
<g>
</g>
<g>
</g>
<g>
</g>
<g>
</g>
<g>
</g>
<g>
</g>
<g>
</g>
<g>
</g>
<g>
</g>
<g>
</g>
<g>
</g>
<g>
</g>
<g>
</g>
<g>
</g>
<g>
</g>
</svg>
