<?xml version="1.0" encoding="utf-8"?>
<!-- Generator: Adobe Illustrator 16.2.1, SVG Export Plug-In . SVG Version: 6.00 Build 0)  -->
<svg version="1.2" baseProfile="tiny" id="Layer_1" xmlns="http://www.w3.org/2000/svg" xmlns:xlink="http://www.w3.org/1999/xlink"
	 x="0px" y="0px" width="48px" height="72px" viewBox="0 0 48 72" xml:space="preserve">
<g>
	<g id="More_Icon">
		<path fill="#76868E" d="M24,12c0,1.104-0.896,2-2,2H2c-1.104,0-2-0.896-2-2l0,0c0-1.104,0.896-2,2-2h20C23.104,10,24,10.896,24,12
			L24,12z"/>
	</g>
	<g id="More_Icon_1_">
		<path fill="#76868E" d="M12,0c1.104,0,2,0.896,2,2v20c0,1.104-0.896,2-2,2l0,0c-1.104,0-2-0.896-2-2V2C10,0.896,10.896,0,12,0
			L12,0z"/>
	</g>
</g>
<g>
	<g id="More_Icon_6_">
		<path fill="#FFFFFF" d="M24,36c0,1.104-0.896,2-2,2H2c-1.104,0-2-0.896-2-2l0,0c0-1.104,0.896-2,2-2h20C23.104,34,24,34.896,24,36
			L24,36z"/>
	</g>
	<g id="More_Icon_2_">
		<path fill="#FFFFFF" d="M12,24c1.104,0,2,0.896,2,2v20c0,1.104-0.896,2-2,2l0,0c-1.104,0-2-0.896-2-2V26
			C10,24.896,10.896,24,12,24L12,24z"/>
	</g>
</g>
<g>
	<g id="More_Icon_10_">
		<path fill="#CDD0D1" d="M24,60c0,1.104-0.896,2-2,2H2c-1.104,0-2-0.896-2-2l0,0c0-1.104,0.896-2,2-2h20C23.104,58,24,58.896,24,60
			L24,60z"/>
	</g>
	<g id="More_Icon_5_">
		<path fill="#CDD0D1" d="M12,48c1.104,0,2,0.896,2,2v20c0,1.104-0.896,2-2,2l0,0c-1.104,0-2-0.896-2-2V50
			C10,48.896,10.896,48,12,48L12,48z"/>
	</g>
</g>
<g>
	<g id="More_Icon_22_">
		<path fill="#9AAEB7" d="M48,12c0,1.104-0.896,2-2,2H26c-1.104,0-2-0.896-2-2l0,0c0-1.104,0.896-2,2-2h20
			C47.104,10,48,10.896,48,12L48,12z"/>
	</g>
	<g id="More_Icon_20_">
		<path fill="#9AAEB7" d="M36,0c1.104,0,2,0.896,2,2v20c0,1.104-0.896,2-2,2l0,0c-1.104,0-2-0.896-2-2V2C34,0.896,34.896,0,36,0
			L36,0z"/>
	</g>
</g>
<g>
	<g id="More_Icon_18_">
		<path fill="#CCEEFF" d="M48,36c0,1.104-0.896,2-2,2H26c-1.104,0-2-0.896-2-2l0,0c0-1.104,0.896-2,2-2h20
			C47.104,34,48,34.896,48,36L48,36z"/>
	</g>
	<g id="More_Icon_16_">
		<path fill="#CCEEFF" d="M36,24c1.104,0,2,0.896,2,2v20c0,1.104-0.896,2-2,2l0,0c-1.104,0-2-0.896-2-2V26
			C34,24.896,34.896,24,36,24L36,24z"/>
	</g>
</g>
<g>
	<g id="More_Icon_14_">
		<path fill="#8596A0" d="M48,60c0,1.104-0.896,2-2,2H26c-1.104,0-2-0.896-2-2l0,0c0-1.104,0.896-2,2-2h20
			C47.104,58,48,58.896,48,60L48,60z"/>
	</g>
	<g id="More_Icon_9_">
		<path fill="#8596A0" d="M36,48c1.104,0,2,0.896,2,2v20c0,1.104-0.896,2-2,2l0,0c-1.104,0-2-0.896-2-2V50
			C34,48.896,34.896,48,36,48L36,48z"/>
	</g>
</g>
<g>
</g>
<g>
</g>
<g>
</g>
<g>
</g>
<g>
</g>
<g>
</g>
<g>
</g>
<g>
</g>
<g>
</g>
<g>
</g>
<g>
</g>
<g>
</g>
<g>
</g>
<g>
</g>
<g>
</g>
</svg>
